<svg width="27" height="28" viewBox="0 0 27 28" fill="none" xmlns="http://www.w3.org/2000/svg">
<path d="M13.4776 9.73111C12.6885 9.65233 11.8946 9.82203 11.2046 10.217C10.5147 10.6119 9.96229 11.2128 9.62318 11.9374C9.28406 12.662 9.17478 13.4748 9.31029 14.2646C9.44579 15.0543 9.81947 15.7825 10.3801 16.3493C10.9408 16.9161 11.6611 17.2938 12.4424 17.4308C13.2236 17.5678 14.0277 17.4573 14.7444 17.1145C15.4611 16.7717 16.0556 16.2133 16.4462 15.5158C16.8369 14.8183 17.0048 14.0157 16.9269 13.218C16.838 12.3238 16.4461 11.4881 15.8174 10.8526C15.1888 10.2172 14.3622 9.82092 13.4776 9.73111ZM22.7378 13.6001C22.7353 14.0227 22.7046 14.4447 22.6458 14.8631L25.3626 17.0172C25.4809 17.1163 25.5606 17.2546 25.5876 17.4076C25.6145 17.5605 25.587 17.7181 25.5098 17.8525L22.9397 22.3478C22.8616 22.4808 22.7396 22.5818 22.5952 22.6328C22.4507 22.6838 22.2931 22.6816 22.1501 22.6266L19.4519 21.5283C19.3031 21.4684 19.142 21.4468 18.9829 21.4653C18.8238 21.4839 18.6717 21.5421 18.5403 21.6346C18.1286 21.9213 17.6959 22.1759 17.246 22.3964C17.1045 22.4659 16.9822 22.5695 16.8897 22.6981C16.7973 22.8268 16.7376 22.9764 16.7159 23.1339L16.3115 26.0431C16.285 26.1967 16.2064 26.3363 16.0894 26.4379C15.9723 26.5395 15.824 26.5968 15.6697 26.6001H10.5295C10.3778 26.5975 10.2315 26.5427 10.1147 26.4447C9.99794 26.3468 9.91766 26.2115 9.88709 26.0613L9.48327 23.1563C9.46059 22.9971 9.39936 22.8461 9.305 22.7166C9.21065 22.5871 9.08611 22.4831 8.94244 22.414C8.49308 22.1947 8.06184 21.9394 7.65287 21.6504C7.52192 21.5583 7.37037 21.5006 7.21186 21.4825C7.05335 21.4643 6.89287 21.4863 6.74488 21.5465L4.04734 22.6442C3.90439 22.6993 3.74681 22.7015 3.60237 22.6506C3.45792 22.5997 3.33588 22.499 3.25773 22.366L0.687597 17.8707C0.610327 17.7364 0.582713 17.5787 0.609674 17.4258C0.636635 17.2728 0.716419 17.1345 0.834823 17.0354L3.13094 15.213C3.25673 15.112 3.3556 14.9809 3.41856 14.8316C3.48153 14.6822 3.50659 14.5193 3.49149 14.3577C3.46986 14.1043 3.45664 13.8516 3.45664 13.5983C3.45664 13.345 3.46926 13.0959 3.49149 12.8481C3.50494 12.6874 3.47865 12.5259 3.41497 12.3781C3.3513 12.2302 3.25224 12.1007 3.12673 12.0012L0.831818 10.1788C0.715336 10.0793 0.637233 9.94142 0.611193 9.78947C0.585154 9.63753 0.61284 9.48117 0.6894 9.34779L3.25954 4.85246C3.33759 4.71942 3.45959 4.6185 3.60404 4.56749C3.7485 4.51648 3.90613 4.51866 4.04915 4.57363L6.74728 5.67195C6.89607 5.73184 7.05723 5.75348 7.21633 5.73492C7.37542 5.71637 7.52748 5.65821 7.65888 5.56564C8.07066 5.27899 8.50336 5.02433 8.95326 4.80387C9.0947 4.73437 9.21704 4.63074 9.30948 4.50212C9.40191 4.3735 9.4616 4.22385 9.48327 4.06639L9.88769 1.15718C9.91425 1.00354 9.99277 0.863994 10.1098 0.762389C10.2269 0.660785 10.3752 0.60343 10.5295 0.600128H15.6697C15.8215 0.602781 15.9677 0.657596 16.0845 0.755541C16.2013 0.853486 16.2816 0.988719 16.3121 1.13896L16.7159 4.04391C16.7386 4.20311 16.7999 4.35418 16.8942 4.48369C16.9886 4.6132 17.1131 4.71713 17.2568 4.78625C17.7061 5.00552 18.1374 5.26087 18.5464 5.54985C18.6773 5.64195 18.8289 5.69967 18.9874 5.7178C19.1459 5.73594 19.3064 5.71392 19.4543 5.65373L22.1519 4.55602C22.2948 4.50099 22.4524 4.49872 22.5969 4.54961C22.7413 4.60051 22.8633 4.7013 22.9415 4.83424L25.5116 9.32957C25.5889 9.46387 25.6165 9.62154 25.5895 9.7745C25.5626 9.92746 25.4828 10.0658 25.3644 10.1648L23.0683 11.9873C22.9419 12.0879 22.8425 12.2189 22.779 12.3682C22.7155 12.5176 22.69 12.6807 22.7047 12.8426C22.7246 13.0941 22.7378 13.3468 22.7378 13.6001Z" stroke="white" stroke-width="1.2" stroke-linecap="round" stroke-linejoin="round"/>
</svg>
