<svg width="18" height="19" viewBox="0 0 18 19" fill="none" xmlns="http://www.w3.org/2000/svg">
<path d="M15.75 19.0007H2.25C1.66525 19.0113 1.10005 18.7955 0.678285 18.4008C0.256521 18.006 0.0126048 17.4644 0 16.8947V6.57838C0 6.38458 0.0790178 6.19872 0.21967 6.06168C0.360322 5.92464 0.551088 5.84766 0.75 5.84766H17.25C17.4489 5.84766 17.6397 5.92464 17.7803 6.06168C17.921 6.19872 18 6.38458 18 6.57838V16.8947C17.9874 17.4644 17.7435 18.006 17.3217 18.4008C16.9 18.7955 16.3348 19.0113 15.75 19.0007ZM1.5 7.30911V16.8947C1.51273 17.0767 1.59863 17.2465 1.73905 17.3672C1.87947 17.4878 2.06307 17.5497 2.25 17.5392H15.75C15.9369 17.5497 16.1205 17.4878 16.261 17.3672C16.4014 17.2465 16.4873 17.0767 16.5 16.8947V7.30911H1.5Z" fill="white"/>
<path d="M12.75 16.8067C12.1567 16.8067 11.5766 16.6353 11.0833 16.3141C10.5899 15.993 10.2054 15.5365 9.97836 15.0024C9.7513 14.4683 9.69189 13.8806 9.80765 13.3136C9.9234 12.7466 10.2091 12.2258 10.6287 11.817C11.0482 11.4083 11.5828 11.1299 12.1647 11.0171C12.7467 10.9043 13.3499 10.9622 13.8981 11.1834C14.4462 11.4047 14.9148 11.7793 15.2444 12.26C15.5741 12.7406 15.75 13.3057 15.75 13.8838C15.75 14.659 15.4339 15.4025 14.8713 15.9506C14.3087 16.4988 13.5457 16.8067 12.75 16.8067ZM12.75 12.4224C12.4533 12.4224 12.1633 12.5081 11.9166 12.6687C11.67 12.8293 11.4777 13.0575 11.3642 13.3246C11.2507 13.5916 11.2209 13.8855 11.2788 14.169C11.3367 14.4524 11.4796 14.7128 11.6893 14.9172C11.8991 15.1216 12.1664 15.2608 12.4574 15.3172C12.7483 15.3736 13.0499 15.3447 13.324 15.234C13.5981 15.1234 13.8324 14.9361 13.9972 14.6958C14.162 14.4554 14.25 14.1729 14.25 13.8838C14.25 13.4962 14.092 13.1245 13.8107 12.8504C13.5294 12.5764 13.1478 12.4224 12.75 12.4224Z" fill="white"/>
<path d="M17.25 7.30673H0.75C0.551088 7.30673 0.360322 7.22975 0.21967 7.09271C0.0790178 6.95567 0 6.76981 0 6.57601V3.65311C0 3.07171 0.237053 2.51412 0.65901 2.10301C1.08097 1.6919 1.65326 1.46094 2.25 1.46094H3.75C3.94891 1.46094 4.13968 1.53792 4.28033 1.67496C4.42098 1.812 4.5 1.99786 4.5 2.19166C4.5 2.38546 4.42098 2.57132 4.28033 2.70836C4.13968 2.8454 3.94891 2.92239 3.75 2.92239H2.25C2.05109 2.92239 1.86032 2.99937 1.71967 3.13641C1.57902 3.27345 1.5 3.45931 1.5 3.65311V5.84528H16.5V3.65311C16.5 3.45931 16.421 3.27345 16.2803 3.13641C16.1397 2.99937 15.9489 2.92239 15.75 2.92239H15C14.8011 2.92239 14.6103 2.8454 14.4697 2.70836C14.329 2.57132 14.25 2.38546 14.25 2.19166C14.25 1.99786 14.329 1.812 14.4697 1.67496C14.6103 1.53792 14.8011 1.46094 15 1.46094H15.75C16.3467 1.46094 16.919 1.6919 17.341 2.10301C17.7629 2.51412 18 3.07171 18 3.65311V6.57601C18 6.76981 17.921 6.95567 17.7803 7.09271C17.6397 7.22975 17.4489 7.30673 17.25 7.30673Z" fill="white"/>
<path d="M12.75 2.92239H10.5C10.3011 2.92239 10.1103 2.8454 9.96967 2.70836C9.82902 2.57132 9.75 2.38546 9.75 2.19166C9.75 1.99786 9.82902 1.812 9.96967 1.67496C10.1103 1.53792 10.3011 1.46094 10.5 1.46094H12.75C12.9489 1.46094 13.1397 1.53792 13.2803 1.67496C13.421 1.812 13.5 1.99786 13.5 2.19166C13.5 2.38546 13.421 2.57132 13.2803 2.70836C13.1397 2.8454 12.9489 2.92239 12.75 2.92239Z" fill="white"/>
<path d="M8.24609 2.92239H5.99609C5.79718 2.92239 5.60642 2.8454 5.46576 2.70836C5.32511 2.57132 5.24609 2.38546 5.24609 2.19166C5.24609 1.99786 5.32511 1.812 5.46576 1.67496C5.60642 1.53792 5.79718 1.46094 5.99609 1.46094H8.24609C8.44501 1.46094 8.63577 1.53792 8.77642 1.67496C8.91708 1.812 8.99609 1.99786 8.99609 2.19166C8.99609 2.38546 8.91708 2.57132 8.77642 2.70836C8.63577 2.8454 8.44501 2.92239 8.24609 2.92239Z" fill="white"/>
<path d="M8.24609 4.38435C8.04718 4.38435 7.85642 4.30736 7.71576 4.17032C7.57511 4.03329 7.49609 3.84742 7.49609 3.65362V0.730725C7.49609 0.536924 7.57511 0.351062 7.71576 0.214024C7.85642 0.0769868 8.04718 0 8.24609 0C8.44501 0 8.63577 0.0769868 8.77642 0.214024C8.91708 0.351062 8.99609 0.536924 8.99609 0.730725V3.65362C8.99609 3.84742 8.91708 4.03329 8.77642 4.17032C8.63577 4.30736 8.44501 4.38435 8.24609 4.38435Z" fill="white"/>
<path d="M12.7539 4.38435C12.555 4.38435 12.3642 4.30736 12.2236 4.17032C12.0829 4.03329 12.0039 3.84742 12.0039 3.65362V0.730725C12.0039 0.536924 12.0829 0.351062 12.2236 0.214024C12.3642 0.0769868 12.555 0 12.7539 0C12.9528 0 13.1436 0.0769868 13.2842 0.214024C13.4249 0.351062 13.5039 0.536924 13.5039 0.730725V3.65362C13.5039 3.84742 13.4249 4.03329 13.2842 4.17032C13.1436 4.30736 12.9528 4.38435 12.7539 4.38435Z" fill="white"/>
<path d="M3.75 4.38435C3.55109 4.38435 3.36032 4.30736 3.21967 4.17032C3.07902 4.03329 3 3.84742 3 3.65362V0.730725C3 0.536924 3.07902 0.351062 3.21967 0.214024C3.36032 0.0769868 3.55109 0 3.75 0C3.94891 0 4.13968 0.0769868 4.28033 0.214024C4.42098 0.351062 4.5 0.536924 4.5 0.730725V3.65362C4.5 3.84742 4.42098 4.03329 4.28033 4.17032C4.13968 4.30736 3.94891 4.38435 3.75 4.38435Z" fill="white"/>
</svg>
