<svg width="24" height="24" viewBox="0 0 24 24" fill="none" xmlns="http://www.w3.org/2000/svg">
<path fill-rule="evenodd" clip-rule="evenodd" d="M19.3478 19.5H3.65217C2.73976 19.5 2 18.7625 2 17.8529V7.14706C2 6.23747 2.73976 5.5 3.65217 5.5H19.3478C20.2602 5.5 21 6.23747 21 7.14706V17.8529C21 18.7625 20.2602 19.5 19.3478 19.5ZM20.1739 7.14706C20.1739 6.69247 19.8038 6.32353 19.3478 6.32353H3.65217C3.19617 6.32353 2.82609 6.69247 2.82609 7.14706V17.8529C2.82609 18.3075 3.19617 18.6765 3.65217 18.6765H19.3478C19.8038 18.6765 20.1739 18.3075 20.1739 17.8529V7.14706ZM18.6597 16.9121L16.0435 14.3039L14.5487 15.7941L15.9258 17.1669C16.0831 17.3238 16.0831 17.5783 15.9258 17.7356C15.768 17.8925 15.5127 17.8925 15.3553 17.7356L9.43478 11.8334L4.3403 16.9121C4.18293 17.0689 3.92767 17.0689 3.76989 16.9121C3.61252 16.7548 3.61252 16.5003 3.76989 16.3434L9.10022 11.0296C9.11343 11.0098 9.12211 10.988 9.13946 10.9703C9.22083 10.8892 9.32822 10.8521 9.43478 10.8546C9.54135 10.8521 9.64874 10.8892 9.73011 10.9703C9.74746 10.988 9.75572 11.0098 9.76935 11.0296L13.9783 15.2255L15.7089 13.5002C15.7225 13.4808 15.7308 13.4586 15.7482 13.4409C15.8295 13.3602 15.9369 13.3227 16.0435 13.3252C16.15 13.3227 16.2574 13.3602 16.3388 13.4409C16.3562 13.4586 16.3644 13.4808 16.378 13.5002L19.2301 16.3434C19.3875 16.5003 19.3875 16.7548 19.2301 16.9121C19.0723 17.0689 18.8171 17.0689 18.6597 16.9121ZM13.5652 10.4412C12.6528 10.4412 11.913 9.70371 11.913 8.79412C11.913 7.88453 12.6528 7.14706 13.5652 7.14706C14.4776 7.14706 15.2174 7.88453 15.2174 8.79412C15.2174 9.70371 14.4776 10.4412 13.5652 10.4412ZM13.5652 7.97059C13.1092 7.97059 12.7391 8.33953 12.7391 8.79412C12.7391 9.24871 13.1092 9.61765 13.5652 9.61765C14.0212 9.61765 14.3913 9.24871 14.3913 8.79412C14.3913 8.33953 14.0212 7.97059 13.5652 7.97059Z" fill="white" fill-opacity="0.4"/>
<path d="M19.3477 5.40039C20.315 5.40039 21.0996 6.18235 21.0996 7.14746V17.8525C21.0996 18.8176 20.315 19.5996 19.3477 19.5996H3.65234C2.68499 19.5996 1.90039 18.8176 1.90039 17.8525V7.14746C1.90039 6.18235 2.68499 5.40039 3.65234 5.40039H19.3477ZM3.65234 6.42383C3.25128 6.42383 2.92578 6.74839 2.92578 7.14746V17.8525C2.92578 18.2516 3.25128 18.5762 3.65234 18.5762H19.3477C19.7487 18.5762 20.0742 18.2516 20.0742 17.8525V7.14746C20.0742 6.74839 19.7487 6.42383 19.3477 6.42383H3.65234ZM9.43652 10.7549C9.53366 10.7534 9.63269 10.7779 9.71875 10.833L9.80078 10.8994L9.80176 10.9004C9.81898 10.918 9.8307 10.936 9.83789 10.9482C9.84413 10.9589 9.84632 10.9639 9.84863 10.9678L13.9775 15.083L15.6279 13.4395C15.6304 13.4356 15.6335 13.4321 15.6406 13.4199C15.6477 13.4078 15.6593 13.389 15.6768 13.3711L15.6777 13.3701C15.7787 13.2699 15.9111 13.2238 16.041 13.2256H16.0449C16.1423 13.224 16.2412 13.2488 16.3271 13.3037L16.4092 13.3701L16.4102 13.3711C16.4277 13.389 16.4392 13.4078 16.4463 13.4199C16.4531 13.4316 16.4557 13.4357 16.458 13.4395L19.3008 16.2725C19.4973 16.4684 19.497 16.7861 19.3008 16.9824V16.9834C19.104 17.1789 18.7853 17.1782 18.5889 16.9824L16.043 14.4453L14.6895 15.7939L15.9961 17.0957C16.1927 17.2917 16.1925 17.6103 15.9961 17.8066C15.7995 18.002 15.4816 18.0021 15.2852 17.8066L9.43457 11.9746L4.41113 16.9824C4.21473 17.1782 3.89597 17.1789 3.69922 16.9834V16.9824C3.503 16.7861 3.50266 16.4684 3.69922 16.2725L9.02148 10.9658C9.02364 10.9621 9.02679 10.9574 9.03223 10.9482C9.03965 10.9357 9.05131 10.9178 9.06836 10.9004L9.06934 10.8994C9.17061 10.7986 9.30295 10.753 9.43262 10.7549H9.43652ZM13.5654 7.04688C14.5326 7.04699 15.3173 7.82899 15.3174 8.79395C15.3174 9.75898 14.5327 10.5409 13.5654 10.541C12.5981 10.541 11.8135 9.75905 11.8135 8.79395C11.8136 7.82892 12.5981 7.04688 13.5654 7.04688ZM13.5654 8.07031C13.1644 8.07031 12.839 8.39496 12.8389 8.79395C12.8389 9.19301 13.1644 9.51758 13.5654 9.51758C13.9664 9.51746 14.291 9.19294 14.291 8.79395C14.2909 8.39503 13.9663 8.07043 13.5654 8.07031Z" stroke="white" stroke-opacity="0.4" stroke-width="0.2"/>
</svg>
