<svg width="39" height="27" viewBox="0 0 39 27" fill="none" xmlns="http://www.w3.org/2000/svg">
<path d="M25.4619 0.100403C25.6925 0.10053 25.8991 0.191021 26.0498 0.335754C26.2011 0.481167 26.2979 0.688775 26.2979 0.90802V24.8846H29.0938V7.86993C29.0938 7.64767 29.1899 7.44387 29.3408 7.29865C29.492 7.15329 29.7031 7.06232 29.9336 7.06232H33.96C34.1898 7.06244 34.4003 7.15269 34.5488 7.29865H34.5479C34.6989 7.44389 34.7959 7.64749 34.7959 7.86993V24.8875H37.5283C37.9447 24.8876 38.2988 25.1931 38.2988 25.5936C38.2988 25.994 37.9447 26.2995 37.5283 26.2996H0.870117C0.453695 26.2995 0.0996116 25.994 0.0996094 25.5936C0.0996094 25.1931 0.453694 24.8876 0.870117 24.8875H3.60254V6.32111C3.60254 6.09866 3.69949 5.89506 3.85059 5.74982C4.00417 5.6022 4.21114 5.51056 4.43945 5.51056H8.46582C8.69646 5.51069 8.90364 5.60143 9.05469 5.74982H9.05371C9.2048 5.89506 9.30176 6.09866 9.30176 6.32111V24.8846H12.0977V11.7342C12.0977 11.5112 12.195 11.3112 12.3447 11.1639V11.1629C12.4956 11.0179 12.706 10.9266 12.9307 10.9266H16.957C17.1901 10.9266 17.3975 11.0173 17.5459 11.1629C17.6971 11.3083 17.7929 11.515 17.793 11.7342V24.8846H20.5898V0.90802C20.5898 0.684985 20.6862 0.484096 20.8359 0.336731L20.8389 0.333801H20.8398C20.9983 0.191454 21.2042 0.100403 21.4355 0.100403H25.4619ZM30.6357 24.8094H33.25V8.55255H30.6357V24.8094ZM22.1416 24.8065H24.7549V1.59064H22.1416V24.8065ZM13.6436 24.8065H16.2568V12.4168H13.6436V24.8065ZM5.14551 24.8065H7.75879V7.00372H5.14551V24.8065Z" fill="white" stroke="white" stroke-width="0.2"/>
</svg>
