<svg width="24" height="24" viewBox="0 0 24 24" fill="none" xmlns="http://www.w3.org/2000/svg">
<g clip-path="url(#clip0_5083_14110)">
<path d="M14.9668 5.40039C15.0893 5.40052 15.2003 5.44761 15.2812 5.52344C15.3624 5.59966 15.4149 5.70883 15.415 5.82617V16.8389H16.6348V9.04004C16.6348 8.92073 16.6873 8.81248 16.7686 8.73633C16.8499 8.66013 16.9627 8.61328 17.085 8.61328H18.9922C19.1135 8.61341 19.2254 8.65993 19.3057 8.73633C19.387 8.81248 19.4404 8.92073 19.4404 9.04004V16.8398H20.6826C20.9009 16.8401 21.0994 16.9982 21.0996 17.2197C21.0996 17.4415 20.901 17.5994 20.6826 17.5996H3.31836C3.09975 17.5996 2.90039 17.4416 2.90039 17.2197C2.90062 16.998 3.09987 16.8398 3.31836 16.8398H4.55957V8.3252C4.55957 8.206 4.61218 8.09763 4.69336 8.02148C4.77551 7.94454 4.88706 7.89746 5.00879 7.89746H6.91602C7.03803 7.89759 7.14832 7.94424 7.22949 8.02148C7.31079 8.09764 7.36426 8.20589 7.36426 8.3252V16.8389H8.58398V10.8232C8.58408 10.7035 8.63686 10.5971 8.7168 10.5205H8.71777C8.79872 10.4447 8.91069 10.3976 9.03027 10.3975H10.9385C11.0618 10.3976 11.1728 10.4438 11.2529 10.5205L11.3076 10.583C11.3568 10.6515 11.3866 10.735 11.3867 10.8232V16.8389H12.6064V5.82617C12.6066 5.70641 12.6593 5.60004 12.7393 5.52344L12.7422 5.52051H12.7432C12.8269 5.44734 12.9365 5.40039 13.0596 5.40039H14.9668ZM17.4697 16.8047H18.6035V9.40918H17.4697V16.8047ZM13.4463 16.8027H14.5791V6.19531H13.4463V16.8027ZM9.4209 16.8027H10.5537V11.1924H9.4209V16.8027ZM5.39551 16.8027H6.52832V8.69434H5.39551V16.8027Z" fill="black" stroke="black" stroke-width="0.2"/>
</g>
<defs>
<clipPath id="clip0_5083_14110">
<rect width="20" height="14" fill="white" transform="translate(2 4.5)"/>
</clipPath>
</defs>
</svg>
