<svg width="33" height="19" viewBox="0 0 33 19" fill="none" xmlns="http://www.w3.org/2000/svg">
<path d="M13.1299 0.319336C16.9291 -0.407727 20.5919 0.127121 24.1055 1.7207C27.3709 3.20179 30.1021 5.37919 32.2354 8.30664C32.3873 8.51513 32.519 8.73978 32.6484 8.96387C32.8808 9.36639 32.8694 9.77308 32.6426 10.1758C32.3442 10.7056 31.9862 11.1938 31.5898 11.6494C28.1004 15.6607 23.8041 18.1747 18.5332 18.8662C17.8289 18.9587 17.1189 18.9982 16.4053 19C12.0789 18.9234 8.18433 17.5553 4.71387 14.9414C3.05585 13.6926 1.57269 12.2604 0.390625 10.5283C0.317718 10.4215 0.250024 10.3106 0.185547 10.1982C-0.0538498 9.78128 -0.0659575 9.36425 0.174805 8.93945C0.539476 8.29638 0.990158 7.71711 1.47266 7.16504C4.61086 3.57451 8.4603 1.21308 13.1299 0.319336ZM12.2842 2.97168C8.47171 4.00992 5.36082 6.13758 2.87695 9.23047C2.58372 9.59557 2.56625 9.49323 2.8916 9.8877C5.00442 12.4496 7.59288 14.3431 10.667 15.5439C11.3342 15.8045 12.0148 16.0296 12.7949 16.1895C10.3091 14.6389 8.90665 12.4792 8.88574 9.56738C8.86484 6.64934 10.2323 4.46074 12.7031 2.87695C12.5152 2.9193 12.3984 2.94056 12.2842 2.97168ZM20.0977 2.87305C22.5589 4.42935 23.9238 6.60193 23.9268 9.49609C23.9297 12.3939 22.55 14.5656 20.167 16.124C20.3921 16.0959 20.6016 16.0551 20.8047 15.9941C24.4785 14.8918 27.5223 12.8245 29.9717 9.84082C30.14 9.63586 30.1462 9.50891 29.9814 9.29688C27.8555 6.56075 25.1616 4.62558 21.9561 3.4082C21.373 3.18678 20.7756 3.01226 20.0977 2.87305ZM16.3936 4.39551C13.562 4.39298 11.2703 6.67977 11.2734 9.50391C11.2768 12.3079 13.5796 14.6449 16.3477 14.6533C19.2102 14.6619 21.5192 12.38 21.5234 9.53906C21.5276 6.66464 19.2673 4.39809 16.3936 4.39551Z" fill="white"/>
<path d="M13.1299 0.319336C16.9291 -0.407727 20.5919 0.127121 24.1055 1.7207C27.3709 3.20179 30.1021 5.37919 32.2354 8.30664C32.3873 8.51513 32.519 8.73978 32.6484 8.96387C32.8808 9.36639 32.8694 9.77308 32.6426 10.1758C32.3442 10.7056 31.9862 11.1938 31.5898 11.6494C28.1004 15.6607 23.8041 18.1747 18.5332 18.8662C17.8289 18.9587 17.1189 18.9982 16.4053 19C12.0789 18.9234 8.18433 17.5553 4.71387 14.9414C3.05585 13.6926 1.57269 12.2604 0.390625 10.5283C0.317718 10.4215 0.250024 10.3106 0.185547 10.1982C-0.0538498 9.78128 -0.0659575 9.36425 0.174805 8.93945C0.539476 8.29638 0.990158 7.71711 1.47266 7.16504C4.61086 3.57451 8.4603 1.21308 13.1299 0.319336ZM12.2842 2.97168C8.47171 4.00992 5.36082 6.13758 2.87695 9.23047C2.58372 9.59557 2.56625 9.49323 2.8916 9.8877C5.00442 12.4496 7.59288 14.3431 10.667 15.5439C11.3342 15.8045 12.0148 16.0296 12.7949 16.1895C10.3091 14.6389 8.90665 12.4792 8.88574 9.56738C8.86484 6.64934 10.2323 4.46074 12.7031 2.87695C12.5152 2.9193 12.3984 2.94056 12.2842 2.97168ZM20.0977 2.87305C22.5589 4.42935 23.9238 6.60193 23.9268 9.49609C23.9297 12.3939 22.55 14.5656 20.167 16.124C20.3921 16.0959 20.6016 16.0551 20.8047 15.9941C24.4785 14.8918 27.5223 12.8245 29.9717 9.84082C30.14 9.63586 30.1462 9.50891 29.9814 9.29688C27.8555 6.56075 25.1616 4.62558 21.9561 3.4082C21.373 3.18678 20.7756 3.01226 20.0977 2.87305ZM16.3936 4.39551C13.562 4.39298 11.2703 6.67977 11.2734 9.50391C11.2768 12.3079 13.5796 14.6449 16.3477 14.6533C19.2102 14.6619 21.5192 12.38 21.5234 9.53906C21.5276 6.66464 19.2673 4.39809 16.3936 4.39551Z" stroke="white"/>
<path d="M13.4142 9.48329C13.4293 7.83379 14.7772 6.52814 16.4495 6.54316C18.0767 6.55779 19.3959 7.90283 19.3811 9.53219C19.3663 11.1596 17.9974 12.5025 16.3745 12.4817C14.7334 12.4607 13.3993 11.1094 13.4142 9.48329Z" fill="white"/>
</svg>
