<svg width="36" height="27" viewBox="0 0 36 27" fill="none" xmlns="http://www.w3.org/2000/svg">
<path d="M32.1553 0.100403C33.8917 0.100403 35.2987 1.51472 35.2988 3.25861V23.1414C35.2987 24.8853 33.8917 26.2996 32.1553 26.2996H3.24316C1.50678 26.2996 0.0997325 24.8853 0.0996094 23.1414V3.25861C0.099733 1.51472 1.50678 0.100403 3.24316 0.100403H32.1553ZM3.24316 1.8299C2.45894 1.8299 1.82141 2.46923 1.82129 3.25861V23.1414C1.82141 23.9308 2.45894 24.5701 3.24316 24.5701H32.1553C32.9395 24.5701 33.577 23.9308 33.5771 23.1414V3.25861C33.577 2.46923 32.9395 1.8299 32.1553 1.8299H3.24316ZM13.8965 10.0447C14.0887 10.0411 14.2838 10.0993 14.4434 10.2283L14.5098 10.2889L14.5107 10.2899C14.5351 10.315 14.5523 10.3412 14.5645 10.3621C14.5761 10.3822 14.5815 10.3944 14.5889 10.4061L22.2637 18.1199L25.3711 14.9969C25.3794 14.9846 25.3865 14.9733 25.3994 14.951C25.4115 14.9302 25.4284 14.9032 25.4531 14.8777L25.4541 14.8768C25.6236 14.7073 25.8465 14.6287 26.0664 14.6326H26.0703C26.2629 14.629 26.4578 14.6886 26.6172 14.8172L26.6836 14.8768L26.6846 14.8777C26.7093 14.9032 26.7263 14.9302 26.7383 14.951C26.7502 14.9717 26.7562 14.9835 26.7637 14.9949L32.0098 20.2674C32.318 20.5773 32.3371 21.0674 32.0674 21.4002L32.0098 21.4647C31.6802 21.795 31.1464 21.7951 30.8174 21.4647L26.0684 16.6912L23.4561 19.3172L25.9229 21.7967C26.2311 22.1065 26.2502 22.5967 25.9805 22.9295L25.9229 22.994C25.5932 23.3244 25.0595 23.3245 24.7305 22.994L13.8945 12.1024L4.58105 21.4647C4.27258 21.7745 3.78453 21.7933 3.45312 21.5223L3.38867 21.4647C3.06016 21.1336 3.05998 20.5978 3.38867 20.2674L13.1992 10.4061C13.2068 10.3938 13.2135 10.3827 13.2256 10.3621C13.238 10.3409 13.2551 10.3148 13.2793 10.2899L13.2803 10.2889C13.45 10.1183 13.6729 10.0408 13.8926 10.0447H13.8965ZM21.5039 3.159C23.2401 3.15918 24.6472 4.57354 24.6475 6.3172C24.6475 8.06107 23.2402 9.47619 21.5039 9.47638C19.7674 9.47638 18.3604 8.06119 18.3604 6.3172C18.3606 4.57342 19.7676 3.159 21.5039 3.159ZM21.5039 4.88849C20.7198 4.88849 20.0823 5.52793 20.082 6.3172C20.082 7.10668 20.7196 7.74689 21.5039 7.74689C22.288 7.7467 22.9258 7.10657 22.9258 6.3172C22.9255 5.52804 22.2879 4.88867 21.5039 4.88849Z" fill="white" stroke="white" stroke-width="0.2"/>
</svg>
