<svg width="24" height="24" viewBox="0 0 24 24" fill="none" xmlns="http://www.w3.org/2000/svg">
<path d="M14.2701 3.79297V4.58464H18.7034L11.4596 10.443L7.14505 7.67214L2.94922 10.6013L3.42422 11.2346L7.14505 8.62214L11.5388 11.393L19.4159 5.02005V9.73047H20.2076V3.79297H14.2701Z" fill="white" fill-opacity="0.4"/>
<path d="M20.3076 3.69336V9.83008H19.3154V5.22949L11.6016 11.4707L11.5459 11.5156L11.4854 11.4775L7.14746 8.74219L3.48145 11.3164L3.40234 11.3721L3.34375 11.2949L2.86914 10.6611L2.80762 10.5781L2.8916 10.5195L7.08789 7.58984L7.14258 7.55176L7.19922 7.58789L11.4521 10.3193L18.4209 4.68457H14.1699V3.69336H20.3076Z" stroke="white" stroke-opacity="0.4" stroke-width="0.2"/>
<path d="M3.58464 13.293H2.79297V21.2096H3.58464V13.293Z" fill="white" fill-opacity="0.4"/>
<path d="M3.68457 13.1934V21.3096H2.69336V13.1934H3.68457Z" stroke="white" stroke-opacity="0.4" stroke-width="0.2"/>
<path d="M6.35417 11.707H5.5625V21.207H6.35417V11.707Z" fill="white" fill-opacity="0.4"/>
<path d="M6.4541 11.6074V21.3066H5.46289V11.6074H6.4541Z" stroke="white" stroke-opacity="0.4" stroke-width="0.2"/>
<path d="M20.2096 13.293H19.418V21.2096H20.2096V13.293Z" fill="white" fill-opacity="0.4"/>
<path d="M20.3096 13.1934V21.3096H19.3184V13.1934H20.3096Z" stroke="white" stroke-opacity="0.4" stroke-width="0.2"/>
<path d="M17.4362 11.707H16.6445V21.207H17.4362V11.707Z" fill="white" fill-opacity="0.4"/>
<path d="M17.5361 11.6074V21.3066H16.5449V11.6074H17.5361Z" stroke="white" stroke-opacity="0.4" stroke-width="0.2"/>
<path d="M14.6667 13.293H13.875V21.2096H14.6667V13.293Z" fill="white" fill-opacity="0.4"/>
<path d="M14.7666 13.1934V21.3096H13.7754V13.1934H14.7666Z" stroke="white" stroke-opacity="0.4" stroke-width="0.2"/>
<path d="M11.8971 15.668H11.1055V21.2096H11.8971V15.668Z" fill="white" fill-opacity="0.4"/>
<path d="M11.9971 15.5684V21.3096H11.0059V15.5684H11.9971Z" stroke="white" stroke-opacity="0.4" stroke-width="0.2"/>
<path d="M9.1237 13.293H8.33203V21.2096H9.1237V13.293Z" fill="white" fill-opacity="0.4"/>
<path d="M9.22363 13.1934V21.3096H8.23242V13.1934H9.22363Z" stroke="white" stroke-opacity="0.4" stroke-width="0.2"/>
</svg>
