<svg width="27" height="27" viewBox="0 0 27 27" fill="none" xmlns="http://www.w3.org/2000/svg">
<path d="M1.48145 14.2822V26.2998H0.0996094V14.2822H1.48145Z" fill="white" stroke="white" stroke-width="0.2"/>
<path d="M5.62207 11.9149V26.2968H4.24023V11.9149H5.62207Z" fill="white" stroke="white" stroke-width="0.2"/>
<path d="M26.3008 0.100403V9.16388H24.9189V2.24103L13.3232 11.6229L13.2676 11.6678L13.207 11.6297L6.70312 7.52911L1.2041 11.3914L1.125 11.4471L0.357422 10.4236L0.295898 10.3406L0.379883 10.282L6.64355 5.909L6.69922 5.87091L6.75488 5.90704L13.1348 10.0037L23.6729 1.48224H17.2373V0.100403H26.3008Z" fill="white" stroke="white" stroke-width="0.2"/>
<path d="M26.2998 14.2824V26.3H24.918V14.2824H26.2998Z" fill="white" stroke="white" stroke-width="0.2"/>
<path d="M22.167 11.9149V26.2968H20.7852V11.9149H22.167Z" fill="white" stroke="white" stroke-width="0.2"/>
<path d="M18.0264 14.2824V26.3H16.6445V14.2824H18.0264Z" fill="white" stroke="white" stroke-width="0.2"/>
<path d="M13.8936 17.8279V26.3005H12.5117V17.8279H13.8936Z" fill="white" stroke="white" stroke-width="0.2"/>
<path d="M9.75684 14.2824V26.3H8.375V14.2824H9.75684Z" fill="white" stroke="white" stroke-width="0.2"/>
</svg>
