<svg width="21" height="21" viewBox="0 0 21 21" fill="none" xmlns="http://www.w3.org/2000/svg">
<path d="M8.3125 16.625C7.35 16.625 6.5625 17.4125 6.5625 18.375C6.5625 19.3375 7.35 20.125 8.3125 20.125C9.275 20.125 10.0625 19.3375 10.0625 18.375C10.0625 17.4125 9.275 16.625 8.3125 16.625ZM8.3125 19.25C7.83125 19.25 7.4375 18.8563 7.4375 18.375C7.4375 17.8937 7.83125 17.5 8.3125 17.5C8.79375 17.5 9.1875 17.8937 9.1875 18.375C9.1875 18.8563 8.79375 19.25 8.3125 19.25Z" fill="white" fill-opacity="0.4"/>
<path d="M8.3125 16.5254C9.33023 16.5254 10.1621 17.3573 10.1621 18.375C10.1621 19.3927 9.33023 20.2246 8.3125 20.2246C7.29477 20.2246 6.46289 19.3927 6.46289 18.375C6.46289 17.3573 7.29477 16.5254 8.3125 16.5254ZM8.3125 17.5996C7.88648 17.5996 7.53711 17.949 7.53711 18.375C7.53711 18.801 7.88648 19.1504 8.3125 19.1504C8.73852 19.1504 9.08789 18.801 9.08789 18.375C9.08789 17.949 8.73852 17.5996 8.3125 17.5996Z" stroke="white" stroke-opacity="0.4" stroke-width="0.2"/>
<path d="M16.1875 16.625C15.225 16.625 14.4375 17.4125 14.4375 18.375C14.4375 19.3375 15.225 20.125 16.1875 20.125C17.15 20.125 17.9375 19.3375 17.9375 18.375C17.9375 17.4125 17.15 16.625 16.1875 16.625ZM16.1875 19.25C15.7062 19.25 15.3125 18.8563 15.3125 18.375C15.3125 17.8937 15.7062 17.5 16.1875 17.5C16.6688 17.5 17.0625 17.8937 17.0625 18.375C17.0625 18.8563 16.6688 19.25 16.1875 19.25Z" fill="white" fill-opacity="0.4"/>
<path d="M16.1875 16.5254C17.2052 16.5254 18.0371 17.3573 18.0371 18.375C18.0371 19.3927 17.2052 20.2246 16.1875 20.2246C15.1698 20.2246 14.3379 19.3927 14.3379 18.375C14.3379 17.3573 15.1698 16.5254 16.1875 16.5254ZM16.1875 17.5996C15.7615 17.5996 15.4121 17.949 15.4121 18.375C15.4121 18.801 15.7615 19.1504 16.1875 19.1504C16.6135 19.1504 16.9629 18.801 16.9629 18.375C16.9629 17.949 16.6135 17.5996 16.1875 17.5996Z" stroke="white" stroke-opacity="0.4" stroke-width="0.2"/>
<path d="M19.075 4.1125C18.7687 3.71875 18.2437 3.5 17.7188 3.5H5.6L5.425 2.3625C5.29375 1.53125 4.55 0.875 3.675 0.875H0.875V1.75H3.675C4.1125 1.75 4.50625 2.05625 4.55 2.49375L6.3875 14.35C6.5625 15.1812 7.30625 15.7937 8.1375 15.7937H17.5V14.9187H8.1375C7.7 14.9187 7.35 14.6125 7.2625 14.175L7.0875 13.125H16.8C17.6313 13.125 18.375 12.5125 18.55 11.5938L19.4688 5.46875C19.5562 4.9875 19.425 4.50625 19.075 4.1125ZM18.5938 5.38125L17.675 11.5062C17.5875 11.9875 17.2375 12.2937 16.8 12.2937H6.95625L5.73125 4.41875H17.7188C17.9813 4.41875 18.2437 4.55 18.4187 4.725C18.5938 4.85625 18.6375 5.11875 18.5938 5.38125Z" fill="white" fill-opacity="0.4"/>
<path d="M3.6748 0.775391C4.59944 0.775391 5.38448 1.46747 5.52344 2.34668V2.34766L5.68652 3.40039H17.7188C18.2686 3.40039 18.8257 3.62832 19.1543 4.05078H19.1533C19.5203 4.46607 19.6601 4.97604 19.5674 5.48633L18.6484 11.6084V11.6123C18.4651 12.575 17.6823 13.2246 16.7998 13.2246H7.20605L7.36133 14.1582C7.44116 14.5512 7.75252 14.8184 8.1377 14.8184H17.5996V15.8936H8.1377C7.25781 15.8936 6.4745 15.2463 6.29004 14.3701L6.28809 14.3652V14.3643L4.45117 2.50879L4.42285 2.36719C4.3265 2.06067 4.01993 1.84961 3.6748 1.84961H0.775391V0.775391H3.6748ZM7.04102 12.1934H16.7998C17.1833 12.1934 17.4963 11.9278 17.5762 11.4883L18.4951 5.36621V5.36523C18.537 5.11424 18.4874 4.90145 18.3584 4.80469L18.3535 4.80078L18.3477 4.7959C18.1878 4.6361 17.95 4.51855 17.7188 4.51855H5.84766L7.04102 12.1934Z" stroke="white" stroke-opacity="0.4" stroke-width="0.2"/>
</svg>
