<svg width="24" height="23" viewBox="0 0 24 23" fill="none" xmlns="http://www.w3.org/2000/svg">
<path d="M12.3713 8.87148C11.8583 8.82083 11.3423 8.92995 10.8937 9.18392C10.4452 9.43788 10.0862 9.82427 9.86572 10.2902C9.64528 10.7561 9.57424 11.2788 9.66233 11.7866C9.75041 12.2945 9.99332 12.7627 10.3578 13.1271C10.7222 13.4916 11.1905 13.7345 11.6983 13.8226C12.2062 13.9107 12.7288 13.8396 13.1947 13.6192C13.6607 13.3988 14.047 13.0397 14.301 12.5912C14.555 12.1427 14.6641 11.6266 14.6134 11.1137C14.5557 10.5387 14.3009 10.0013 13.8923 9.59266C13.4836 9.18402 12.9463 8.92924 12.3713 8.87148ZM18.3908 11.3594C18.3892 11.6311 18.3692 11.9024 18.331 12.1715L20.097 13.5566C20.1739 13.6204 20.2258 13.7093 20.2433 13.8077C20.2608 13.906 20.2429 14.0074 20.1927 14.0938L18.522 16.9844C18.4713 17.0699 18.392 17.1348 18.2981 17.1676C18.2042 17.2004 18.1017 17.199 18.0088 17.1637L16.2549 16.4574C16.1581 16.4189 16.0534 16.405 15.95 16.4169C15.8465 16.4289 15.7477 16.4663 15.6623 16.5258C15.3946 16.7101 15.1133 16.8739 14.8209 17.0156C14.7289 17.0603 14.6494 17.127 14.5893 17.2097C14.5292 17.2924 14.4904 17.3886 14.4763 17.4898L14.2134 19.3605C14.1962 19.4593 14.1451 19.5491 14.069 19.6144C13.993 19.6797 13.8965 19.7166 13.7963 19.7188H10.4549C10.3562 19.717 10.2611 19.6818 10.1852 19.6188C10.1093 19.5558 10.0571 19.4689 10.0373 19.3723L9.77478 17.5043C9.76003 17.4019 9.72023 17.3048 9.65889 17.2215C9.59756 17.1382 9.5166 17.0714 9.42321 17.027C9.13111 16.886 8.85078 16.7218 8.58493 16.5359C8.49981 16.4767 8.40129 16.4396 8.29826 16.4279C8.19522 16.4163 8.0909 16.4304 7.9947 16.4691L6.24118 17.175C6.14825 17.2104 6.04582 17.2118 5.95193 17.1791C5.85803 17.1464 5.7787 17.0816 5.7279 16.9961L4.0572 14.1055C4.00697 14.0191 3.98902 13.9177 4.00654 13.8194C4.02407 13.721 4.07593 13.6321 4.1529 13.5684L5.64548 12.3965C5.72725 12.3316 5.79152 12.2473 5.83245 12.1512C5.87337 12.0552 5.88967 11.9504 5.87985 11.8465C5.86579 11.6836 5.8572 11.5211 5.8572 11.3582C5.8572 11.1953 5.8654 11.0352 5.87985 10.8758C5.8886 10.7725 5.8715 10.6686 5.83011 10.5736C5.78872 10.4785 5.72433 10.3952 5.64274 10.3312L4.15095 9.15937C4.07523 9.09535 4.02446 9.00672 4.00753 8.90901C3.9906 8.81131 4.0086 8.71077 4.05837 8.625L5.72907 5.73438C5.77981 5.64882 5.85912 5.58393 5.95302 5.55113C6.04692 5.51833 6.14938 5.51973 6.24235 5.55508L7.99626 6.26133C8.09298 6.29984 8.19774 6.31375 8.30116 6.30182C8.40458 6.28989 8.50343 6.25249 8.58884 6.19297C8.85651 6.00864 9.13779 5.84489 9.43024 5.70312C9.52219 5.65844 9.60171 5.5918 9.6618 5.50909C9.72189 5.42639 9.76069 5.33016 9.77478 5.22891L10.0377 3.3582C10.0549 3.25941 10.106 3.16967 10.1821 3.10434C10.2582 3.039 10.3546 3.00212 10.4549 3H13.7963C13.8949 3.00171 13.99 3.03695 14.0659 3.09994C14.1418 3.16292 14.194 3.24988 14.2138 3.34648L14.4763 5.21445C14.4911 5.31682 14.5309 5.41396 14.5922 5.49724C14.6536 5.58052 14.7345 5.64735 14.8279 5.6918C15.12 5.8328 15.4003 5.99699 15.6662 6.18281C15.7513 6.24204 15.8498 6.27915 15.9529 6.29081C16.0559 6.30247 16.1602 6.28831 16.2564 6.24961L18.0099 5.54375C18.1029 5.50836 18.2053 5.50691 18.2992 5.53963C18.3931 5.57236 18.4724 5.63717 18.5232 5.72266L20.1939 8.61328C20.2441 8.69964 20.2621 8.80103 20.2446 8.89939C20.227 8.99775 20.1752 9.08669 20.0982 9.15039L18.6056 10.3223C18.5235 10.387 18.4589 10.4712 18.4176 10.5672C18.3763 10.6633 18.3597 10.7682 18.3693 10.8723C18.3822 11.034 18.3908 11.1965 18.3908 11.3594Z" stroke="white" stroke-width="1.2" stroke-linecap="round" stroke-linejoin="round"/>
</svg>
