<svg width="20" height="20" viewBox="0 0 20 20" fill="none" xmlns="http://www.w3.org/2000/svg">
<path d="M2.18681 0.00497523L12.1008 0.00518726C12.8934 0.00408578 13.6147 -0.0855012 14.2313 0.526712C14.7775 1.06912 14.7195 1.66195 14.7191 2.36554L14.7183 3.5427H12.3435V2.32946H2.3306C2.31177 2.68736 2.33005 3.05678 2.33016 3.41567L2.3306 5.6038V13.0145H4.06641C4.07447 13.7548 4.06552 14.4958 4.06641 15.2362L2.39266 15.2365C1.6441 15.2366 1.03951 15.3422 0.465052 14.7695C0.130574 14.436 0.00183787 14.0407 0 13.5766L0.000975919 2.77462C0.000862819 0.958353 0.0828032 0.00119065 2.18681 0.00497523Z" fill="white"/>
<path d="M6.86738 4.72845C7.04636 4.71178 7.24295 4.72718 7.42349 4.72734L17.751 4.72751C18.7548 4.72355 19.6797 4.83105 19.9514 6.05572C20.0148 6.34151 19.9938 6.64845 19.9933 6.93986V17.5678C19.9913 18.8283 19.8201 19.6885 18.4018 19.9927C18.0982 19.9727 17.7831 19.9925 17.4783 19.9926L7.80234 19.9926C7.47321 19.9927 7.12568 20.0182 6.79947 19.9766C5.526 19.8145 5.29709 18.8378 5.29688 17.7956V6.99077C5.29695 5.82788 5.54011 4.9267 6.86738 4.72845ZM7.69949 7.05403C7.6631 7.05618 7.6251 7.0532 7.59484 7.07599C7.57949 7.43919 7.59523 7.80954 7.5949 8.17351L7.5954 17.6642H17.6014L17.6408 17.6579C17.713 17.5068 17.6604 16.6344 17.6604 16.4179L17.661 7.05403H7.69949Z" fill="white"/>
</svg>
