<svg width="26" height="27" viewBox="0 0 26 27" fill="none" xmlns="http://www.w3.org/2000/svg">
<path d="M10.2158 21.3732C11.5672 21.3733 12.6717 22.4814 12.6719 23.8361C12.6719 25.191 11.5673 26.2999 10.2158 26.3C8.86431 26.3 7.75977 25.191 7.75977 23.8361C7.75996 22.4813 8.86443 21.3732 10.2158 21.3732ZM10.2158 22.755C9.62347 22.755 9.13789 23.2412 9.1377 23.8361C9.1377 24.4312 9.62335 24.9181 10.2158 24.9181C10.8082 24.9181 11.2939 24.4311 11.2939 23.8361C11.2938 23.2412 10.8081 22.7551 10.2158 22.755Z" fill="white" stroke="white" stroke-width="0.2"/>
<path d="M20.8154 21.3732C22.1668 21.3733 23.2713 22.4814 23.2715 23.8361C23.2715 25.191 22.1669 26.2999 20.8154 26.3C19.4639 26.3 18.3594 25.191 18.3594 23.8361C18.3596 22.4813 19.464 21.3732 20.8154 21.3732ZM20.8154 22.755C20.2231 22.755 19.7375 23.2412 19.7373 23.8361C19.7373 24.4312 20.223 24.9181 20.8154 24.9181C21.4079 24.9181 21.8936 24.4311 21.8936 23.8361C21.8934 23.2412 21.4077 22.7551 20.8154 22.755Z" fill="white" stroke="white" stroke-width="0.2"/>
<path d="M3.96973 0.100403C5.19759 0.100588 6.24042 1.02283 6.4248 2.19318V2.19415L6.64746 3.64532H22.8789C23.6087 3.64532 24.3451 3.94918 24.7803 4.50665L24.9502 4.71954C25.3132 5.23051 25.442 5.82689 25.334 6.42267L24.0967 14.6922V14.6961C23.8527 15.9807 22.8123 16.8455 21.6416 16.8455H8.68262L8.89844 18.1473C9.00872 18.6935 9.44134 19.068 9.97754 19.0682H22.6846V20.45H9.97754C8.80963 20.4498 7.76846 19.588 7.52344 18.4207L7.52246 18.4149L5.04883 2.40118L5.04785 2.3963C4.99479 1.86414 4.51516 1.48241 3.96973 1.48224H0.0996094V0.100403H3.96973ZM8.47363 15.5223H21.6416C22.1764 15.5223 22.6114 15.1493 22.7217 14.5408L23.958 6.2713V6.27032C24.015 5.92742 23.9512 5.62317 23.7617 5.48029L23.7559 5.4754L23.751 5.47052C23.5305 5.24932 23.201 5.08673 22.8789 5.08673H6.85449L8.47363 15.5223Z" fill="white" stroke="white" stroke-width="0.2"/>
</svg>
