<svg width="76" height="75" viewBox="0 0 76 75" fill="none" xmlns="http://www.w3.org/2000/svg">
<path d="M13.4362 68H61.5677C63.009 68 64.391 68.5268 65.4099 69.4645C66.4287 70.4021 67.0008 71.6739 67.0004 73H8.00039C8.00081 71.6739 8.57374 70.4021 9.59314 69.4645C10.6125 68.5268 11.9949 68 13.4362 68Z" stroke="white" stroke-width="2" stroke-linecap="round" stroke-linejoin="round"/>
<path d="M64.0136 33.144C63.0171 32.867 61.9735 32.8001 60.9494 32.9475C59.9254 33.0949 58.9434 33.4534 58.0662 34C56.7312 29.7871 54.0852 26.1066 50.5107 23.4905C46.9363 20.8745 42.6186 19.4586 38.1819 19.4475H38.0178L43.4352 14C48.3054 14.9898 52.8053 17.3019 56.4371 20.6806C60.0689 24.0592 62.6911 28.3728 64.0136 33.144Z" stroke="white" stroke-width="2" stroke-linecap="round" stroke-linejoin="round"/>
<path d="M25.0127 35H5.0127L5.01114 40H25.0111L25.0127 35Z" stroke="white" stroke-width="2" stroke-linecap="round" stroke-linejoin="round"/>
<path d="M45.0197 11.8479L31.8629 25L26.0174 19.1521L39.1741 6L45.0197 11.8479Z" stroke="white" stroke-width="2" stroke-linecap="round" stroke-linejoin="round"/>
<path d="M32.0195 14L38.0177 20" stroke="white" stroke-width="2" stroke-linecap="round" stroke-linejoin="round"/>
<path d="M44.9951 12L41.0206 8.01918L47.0549 2L51.0212 5.96483L44.9951 12Z" stroke="white" stroke-width="2" stroke-linecap="round" stroke-linejoin="round"/>
<path d="M64.0085 48.1465C62.274 54.4507 58.3164 59.9119 52.8695 63.5181C47.4226 67.1242 40.8557 68.6307 34.3859 67.7583C27.9161 66.8859 21.9822 63.6937 17.684 58.7735C13.3859 53.8533 11.015 47.5386 11.0107 41H17.0133C17.0137 46.0255 18.8103 50.8843 22.078 54.697C25.3456 58.5098 29.8684 61.0245 34.8279 61.7863C39.7874 62.548 44.8558 61.5064 49.116 58.8498C53.3761 56.1933 56.5466 52.0974 58.0535 47.3034C59.2317 48.0456 60.5945 48.4415 61.9866 48.4459C62.6712 48.4408 63.3517 48.3401 64.0085 48.1465Z" stroke="white" stroke-width="2" stroke-linecap="round" stroke-linejoin="round"/>
<path d="M62.508 48C66.6502 48 70.0091 44.6421 70.0104 40.5C70.0117 36.3579 66.6548 33 62.5127 33C58.3706 33 55.0116 36.3579 55.0104 40.5C55.0091 44.6421 58.3659 48 62.508 48Z" stroke="white" stroke-width="2" stroke-linecap="round" stroke-linejoin="round"/>
<path d="M62.0098 44C63.6667 44 65.0103 42.6569 65.0108 41C65.0113 39.3431 63.6686 38 62.0117 38C60.3549 38 59.0113 39.3431 59.0108 41C59.0103 42.6569 60.353 44 62.0098 44Z" stroke="white" stroke-width="2" stroke-linecap="round" stroke-linejoin="round"/>
</svg>
