<svg width="71" height="70" viewBox="0 0 71 70" fill="none" xmlns="http://www.w3.org/2000/svg">
<path d="M44.5154 21.0996C50.25 21.0996 54.9144 25.7656 54.9126 31.5C54.9108 37.2345 50.2435 41.9003 44.509 41.9004C38.7746 41.9004 34.11 37.2346 34.1118 31.5C34.1136 25.7654 38.781 21.0996 44.5154 21.0996ZM44.5146 23.7578C40.2457 23.7578 36.7713 27.2309 36.77 31.5C36.7687 35.7691 40.2409 39.2422 44.5098 39.2422C48.7789 39.2421 52.2531 35.7691 52.2544 31.5C52.2557 27.2309 48.7836 23.7579 44.5146 23.7578Z" fill="white" stroke="#404040" stroke-width="0.2"/>
<path d="M45.0145 28.0996C47.1648 28.0997 48.9143 29.8498 48.9136 32C48.913 34.1503 47.1624 35.9003 45.012 35.9004C42.8617 35.9004 41.1122 34.1504 41.1129 32C41.1136 29.8496 42.8642 28.0996 45.0145 28.0996ZM45.0136 30.9775C44.4496 30.9775 43.991 31.4359 43.9908 32C43.9906 32.5642 44.4487 33.0234 45.0129 33.0234C45.5771 33.0234 46.0355 32.5642 46.0357 32C46.0358 31.4359 45.5777 30.9776 45.0136 30.9775Z" fill="white" stroke="#404040" stroke-width="0.2"/>
<path d="M31.0179 15.0996C33.1681 15.0996 34.9177 16.8496 34.9171 19C34.9163 21.1504 33.1657 22.9004 31.0155 22.9004C28.8651 22.9004 27.1156 21.1504 27.1163 19C27.117 16.8496 28.8677 15.0996 31.0179 15.0996ZM31.017 17.9775C30.4528 17.9775 29.9934 18.4359 29.9932 19C29.9931 19.5642 30.4522 20.0234 31.0163 20.0234C31.5805 20.0234 32.0399 19.5642 32.0401 19C32.0402 18.4359 31.5811 17.9775 31.017 17.9775Z" fill="white" stroke="#404040" stroke-width="0.2"/>
<path d="M20.0145 23.0996C22.1649 23.0996 23.9143 24.8498 23.9136 27C23.913 29.1504 22.1623 30.9004 20.012 30.9004C17.8619 30.9003 16.1122 29.1503 16.1129 27C16.1135 24.8496 17.8641 23.0996 20.0145 23.0996ZM20.0136 25.9766C19.4495 25.9766 18.991 26.4359 18.9908 27C18.9906 27.5641 19.4488 28.0234 20.0129 28.0234C20.5771 28.0234 21.0365 27.5642 21.0367 27C21.0369 26.4358 20.5777 25.9766 20.0136 25.9766Z" fill="white" stroke="#404040" stroke-width="0.2"/>
<path d="M29.012 31.0996C31.1623 31.0996 32.9119 32.8496 32.9112 35C32.9105 37.1504 31.1598 38.9004 29.0096 38.9004C26.8592 38.9004 25.1097 37.1504 25.1104 35C25.1111 32.8496 26.8618 31.0996 29.012 31.0996ZM29.0111 33.9775C28.447 33.9775 27.9876 34.4359 27.9874 35C27.9872 35.5642 28.4463 36.0234 29.0105 36.0234C29.5747 36.0234 30.0341 35.564 30.0342 35C30.0344 34.4359 29.5753 33.9775 29.0111 33.9775Z" fill="white" stroke="#404040" stroke-width="0.2"/>
<path d="M23.0091 41.0996C25.1593 41.0996 26.9088 42.8497 26.9083 45C26.9076 47.1504 25.157 48.9004 23.0067 48.9004C20.8563 48.9004 19.1069 47.1504 19.1075 45C19.1082 42.8497 20.8588 41.0996 23.0091 41.0996ZM23.0082 43.9775C22.444 43.9775 21.9846 44.4358 21.9844 45C21.9843 45.5641 22.4434 46.0225 23.0076 46.0225C23.5717 46.0225 24.0311 45.5641 24.0313 45C24.0315 44.4358 23.5723 43.9775 23.0082 43.9775Z" fill="white" stroke="#404040" stroke-width="0.2"/>
<path d="M33.0067 48.0996C35.1569 48.0996 36.9065 49.8497 36.9058 52C36.9051 54.1504 35.1546 55.9004 33.0042 55.9004C30.8539 55.9004 29.1044 54.1504 29.105 52C29.1057 49.8497 30.8564 48.0996 33.0067 48.0996ZM33.0058 50.9775C32.4416 50.9775 31.9822 51.4358 31.982 52C31.9819 52.5641 32.441 53.0225 33.0051 53.0225C33.5693 53.0225 34.0287 52.5641 34.0289 52C34.029 51.4358 33.5699 50.9775 33.0058 50.9775Z" fill="white" stroke="#404040" stroke-width="0.2"/>
<path d="M45.0067 46.0996C47.1571 46.0997 48.9065 47.8497 48.9058 50C48.9051 52.1504 47.1546 53.9003 45.0042 53.9004C42.854 53.9004 41.1044 52.1504 41.105 50C41.1057 47.8497 42.8564 46.0996 45.0067 46.0996ZM45.0058 48.9775C44.4416 48.9775 43.9832 49.4358 43.983 50C43.9828 50.5641 44.4409 51.0225 45.0051 51.0225C45.5692 51.0224 46.0277 50.5641 46.0279 50C46.0281 49.4358 45.5699 48.9776 45.0058 48.9775Z" fill="white" stroke="#404040" stroke-width="0.2"/>
<path d="M29.3887 0.947266C29.6712 0.252527 30.4638 -0.0817443 31.1585 0.200195C32.9637 0.933126 36.0932 3.30073 36.3926 7.33887L36.3984 7.42676L36.4863 7.43066C43.0008 7.77328 48.9236 10.3858 53.4773 14.4893L53.5554 14.5596L53.6218 14.4775C54.6426 13.2 54.8486 11.7921 54.7929 10.6904C54.7373 9.58967 54.4206 8.78781 54.3892 8.71094L54.3882 8.70996C54.097 8.01924 54.4222 7.22557 55.1134 6.93359C55.8042 6.64218 56.6026 6.96911 56.8944 7.66016C57.653 9.45692 58.1913 13.351 55.5372 16.4209L55.4796 16.4873L55.5391 16.5537C59.6373 21.1102 62.2443 27.0328 62.5817 33.5469L62.5865 33.6533L62.693 33.6406C64.336 33.4509 65.4836 32.5764 66.2199 31.749C66.9541 30.9241 67.2846 30.1415 67.2956 30.1143C67.5779 29.4196 68.3693 29.0846 69.0644 29.3662C69.7594 29.6485 70.0941 30.4413 69.8119 31.1367C69.0782 32.942 66.7104 36.0722 62.6726 36.373L62.5847 36.3789L62.5798 36.4678C62.2349 42.982 59.6213 48.9042 55.5169 53.459L55.4456 53.5381L55.5285 53.6045C56.8057 54.6246 58.2127 54.8303 59.3143 54.7744C60.4149 54.7185 61.2167 54.4017 61.2939 54.3701H61.2949C61.9853 54.0786 62.7793 54.4024 63.0711 55.0937C63.3625 55.7844 63.0353 56.5827 62.3439 56.875C61.561 57.2056 60.3729 57.498 59.0264 57.498C57.2959 57.498 55.3091 57.0152 53.5826 55.5225L53.5153 55.4648L53.4498 55.5234C48.8925 59.6225 42.9697 62.2308 36.4564 62.5703L36.35 62.5752L36.3617 62.6816C36.5509 64.3242 37.4259 65.4718 38.2531 66.208C39.0796 66.9434 39.8639 67.2736 39.8876 67.2832C40.5823 67.5654 40.9164 68.3577 40.6341 69.0527C40.3508 69.7492 39.5577 70.0811 38.8643 69.7998C37.0591 69.0668 33.9307 66.6992 33.6312 62.6611L33.6244 62.5742L33.5365 62.5693L32.9271 62.5303C26.6532 62.0616 20.9577 59.4866 16.5465 55.5117L16.4674 55.4404L16.402 55.5234C15.3678 56.8201 15.1722 58.253 15.2357 59.3613C15.2834 60.1919 15.4763 60.8439 15.5741 61.1279L15.6306 61.2822C16.0103 62.1817 15.3443 63.1698 14.3801 63.1699C13.8502 63.1699 13.3472 62.858 13.1284 62.3398C12.3696 60.5429 11.8315 56.6489 14.4856 53.5791L14.5432 53.5127L14.4837 53.4473C10.3854 48.8907 7.77851 42.9672 7.44112 36.4531L7.43627 36.3467L7.32982 36.3594C5.68686 36.5492 4.53921 37.4236 3.80287 38.251C3.07126 39.0731 2.7413 39.8538 2.72814 39.8857H2.72716C2.51285 40.4133 2.00484 40.7344 1.46811 40.7344C0.511699 40.7342 -0.153268 39.7609 0.210877 38.8643C0.944217 37.059 3.3135 33.9293 7.35118 33.6279L7.43907 33.6221L7.44301 33.5342C7.78765 27.0196 10.4013 21.0961 14.5059 16.541L14.5772 16.4629L14.4942 16.3965C13.1978 15.3627 11.765 15.1676 10.6567 15.2314C9.82618 15.2793 9.17404 15.4725 8.89001 15.5703L8.7357 15.6279C8.04492 15.9201 7.24751 15.5962 6.95565 14.9053C6.66384 14.2142 6.9879 13.4169 7.67886 13.125C9.47598 12.3658 13.3703 11.8263 16.4392 14.4795L16.5056 14.5371L16.571 14.4775C21.1287 10.3777 27.0532 7.76911 33.5674 7.42969L33.6728 7.4248L33.6611 7.31836C33.4719 5.67587 32.5978 4.52822 31.7706 3.79199C30.9441 3.05635 30.1589 2.72644 30.1352 2.7168C29.4406 2.43454 29.1064 1.64219 29.3887 0.947266ZM35.0177 10.1084C21.2945 10.1091 10.1271 21.2732 10.1203 34.9961L10.1203 35L10.1279 35.6416C10.4651 49.069 21.4885 59.8873 34.9953 59.8916C48.7596 59.8916 59.8961 48.6972 59.9025 35.0039L59.9025 35C59.9067 21.276 48.746 10.1104 35.0226 10.1084H35.0177Z" fill="white" stroke="#404040" stroke-width="0.2"/>
</svg>
