<svg width="76" height="75" viewBox="0 0 76 75" fill="none" xmlns="http://www.w3.org/2000/svg">
<g clip-path="url(#clip0_5044_3162)">
<path d="M37.0021 65C52.466 65 65.006 52.464 65.0108 37C65.0156 21.536 52.4835 9 37.0195 9C21.5556 9 9.01562 21.536 9.0108 37C9.00598 52.464 21.5381 65 37.0021 65Z" stroke="white" stroke-width="2.5" stroke-linecap="round" stroke-linejoin="round"/>
<path d="M27.011 39.001C28.1153 39.001 29.0108 38.1058 29.0111 37.0015C29.0115 35.8972 28.1165 35.002 27.0122 35.002C25.9079 35.002 25.0124 35.8972 25.0121 37.0015C25.0117 38.1058 25.9067 39.001 27.011 39.001Z" fill="white"/>
<path d="M48.011 39.001C49.1153 39.001 50.0108 38.1058 50.0111 37.0015C50.0115 35.8972 49.1165 35.002 48.0122 35.002C46.9079 35.002 46.0124 35.8972 46.0121 37.0015C46.0117 38.1058 46.9067 39.001 48.011 39.001Z" fill="white"/>
<path d="M46.0088 49C43.6375 50.3043 40.8543 51 38.0082 51C35.162 51 32.3793 50.3043 30.0088 49" stroke="white" stroke-width="2.5" stroke-linecap="round" stroke-linejoin="round"/>
<path d="M37.5205 9C33.0187 14.7143 33.0169 20.4286 33.0169 20.4286C33.0166 21.641 33.4903 22.8038 34.334 23.6611C35.1776 24.5184 36.322 25 37.5155 25C38.709 25 39.8537 24.5184 40.6979 23.6611C41.5421 22.8038 42.0166 21.641 42.0169 20.4286" stroke="white" stroke-width="2.5" stroke-linecap="round" stroke-linejoin="round"/>
</g>
<defs>
<clipPath id="clip0_5044_3162">
<rect width="75" height="75" fill="white" transform="matrix(1 0 -0.000311712 1 0.0234375 0)"/>
</clipPath>
</defs>
</svg>
