<svg width="26" height="26" viewBox="0 0 26 26" fill="none" xmlns="http://www.w3.org/2000/svg">
<path d="M9.95312 9.30312H11.1719V19.0531H9.95312V9.30312Z" fill="white"/>
<path d="M12.3906 9.30312H13.6094V19.0531H12.3906V9.30312Z" fill="white"/>
<path d="M14.8281 9.30312H16.0469V19.0531H14.8281V9.30312Z" fill="white"/>
<path d="M5.07812 5.64687H20.9219V6.86562H5.07812V5.64687Z" fill="white"/>
<path d="M16.0061 6.25625H14.8687V5.0375C14.8687 4.67187 14.5843 4.3875 14.2186 4.3875H11.7811C11.4155 4.3875 11.1311 4.67187 11.1311 5.0375V6.25625H9.99365V5.0375C9.99365 4.0625 10.8061 3.25 11.7811 3.25H14.2186C15.1936 3.25 16.0061 4.0625 16.0061 5.0375V6.25625Z" fill="white"/>
<path d="M16.6562 22.7094H9.34375C8.36875 22.7094 7.51563 21.8969 7.43438 20.9219L6.29688 6.29688L7.51562 6.21563L8.65313 20.8406C8.69375 21.2063 9.01875 21.4906 9.34375 21.4906H16.6562C17.0219 21.4906 17.3469 21.1656 17.3469 20.8406L18.4844 6.21563L19.7031 6.29688L18.5656 20.9219C18.4844 21.9375 17.6313 22.7094 16.6562 22.7094Z" fill="white"/>
</svg>
