<svg width="76" height="75" viewBox="0 0 76 75" fill="none" xmlns="http://www.w3.org/2000/svg">
<mask id="path-1-outside-1_5044_458" maskUnits="userSpaceOnUse" x="19.0008" y="1" width="38.0224" height="72" fill="black">
<rect fill="white" x="19.0008" y="1" width="38.0224" height="72"/>
<path d="M56.0228 2L44.1329 2L44.1319 5.20891L31.912 5.20891L31.913 2L20.0231 2L20.0159 25.128C19.9939 29.5262 21.6177 33.7751 24.5722 37.0497C21.6231 40.309 19.9968 44.5397 20.0085 48.9216L20.0013 72H31.8912L31.8921 69.109H44.112L44.1111 72H56.0009L56.0081 48.9216C56.0302 44.5235 54.4064 40.2746 51.4519 37C54.401 33.7406 56.0273 29.5099 56.0155 25.128L56.0228 2ZM31.9117 6.20238L44.1316 6.20238L44.1304 9.84842L31.9106 9.84842L31.9117 6.20238ZM31.9103 10.8419L44.1301 10.8419L44.129 14.478L31.9091 14.478L31.9103 10.8419ZM31.9088 15.4715L44.1287 15.4715L44.1275 19.1175L31.9077 19.1175L31.9088 15.4715ZM31.9074 20.111L44.1272 20.111L44.1261 23.757L31.9062 23.757L31.9074 20.111ZM31.9059 24.7505L44.1258 24.7505L44.1257 24.9591C44.1255 25.7563 43.9672 26.5456 43.6599 27.2821C43.3526 28.0185 42.9024 28.6877 42.3348 29.2513C41.7673 29.815 41.0936 30.2621 40.3522 30.5672C39.6108 30.8722 38.8163 31.0292 38.0139 31.0292C37.2115 31.0292 36.4171 30.8722 35.6759 30.5672C34.9347 30.2621 34.2613 29.815 33.6941 29.2513C33.1269 28.6877 32.677 28.0185 32.3702 27.2821C32.0634 26.5456 31.9056 25.7563 31.9059 24.9591L31.9059 24.7505ZM21.0159 25.128L21.0228 2.99347L30.8827 2.99347L30.8759 24.9591C30.8782 26.8215 31.6217 28.6071 32.9443 29.9265C33.501 30.4745 34.1423 30.9306 34.8439 31.2776L34.3838 31.367C33.4679 31.5541 32.5683 31.8132 31.6936 32.1419L30.9135 32.4499C30.5835 32.579 30.2735 32.7281 29.9134 32.887C29.5534 33.046 29.4133 33.1453 29.1733 33.2844C28.9333 33.4235 28.6832 33.5526 28.4432 33.7017C28.2031 33.8507 27.8831 34.0693 27.603 34.2679C27.3229 34.4666 27.2129 34.5362 27.0229 34.6852C26.5678 35.0307 26.1305 35.3988 25.7126 35.788C25.5725 35.9171 25.4325 36.0463 25.3024 36.1853L25.2224 36.2549C22.5004 33.1806 21.0043 29.2231 21.0159 25.128ZM44.1123 68.1155H31.8924L31.8935 64.4794H44.1134L44.1123 68.1155ZM44.1137 63.4859H31.8938L31.895 59.8498H44.1149L44.1137 63.4859ZM44.1152 58.8464H31.8953L31.8964 55.2004H44.1163L44.1152 58.8464ZM44.1166 54.2069H31.8967L31.8979 50.5708H44.1177L44.1166 54.2069ZM44.1181 49.5773H31.8982L31.8984 49.0409C31.8986 48.2437 32.0569 47.4544 32.3642 46.7179C32.6715 45.9815 33.1217 45.3123 33.6892 44.7486C34.2568 44.185 34.9305 43.7379 35.6719 43.4328C36.4133 43.1278 37.2078 42.9708 38.0102 42.9708C38.8125 42.9708 39.607 43.1278 40.3482 43.4328C41.0894 43.7379 41.7628 44.185 42.33 44.7486C42.8972 45.3123 43.347 45.9815 43.6539 46.7179C43.9607 47.4544 44.1185 48.2437 44.1182 49.0409L44.1181 49.5773ZM55.0081 48.9216L55.0013 71.0065H45.1114L45.1182 49.0409C45.1149 47.7185 44.7385 46.4237 44.0318 45.3034C43.3252 44.183 42.3165 43.282 41.1202 42.7025L41.5202 42.623C41.8002 42.623 42.0903 42.5038 42.3703 42.4343C42.8405 42.3228 43.3045 42.1868 43.7604 42.027L44.3005 41.8382L44.5305 41.7587L45.0305 41.5501C45.4506 41.3713 45.8607 41.1825 46.2607 40.9739L46.8608 40.646C47.0608 40.5368 47.2509 40.4175 47.4409 40.2983L48.011 39.9804C48.201 39.8612 48.3811 39.732 48.5711 39.593C48.7612 39.4539 48.9412 39.3247 49.1212 39.1757C49.3013 39.0267 49.4713 38.8975 49.6514 38.7386C50.0015 38.4405 50.3416 38.1326 50.6517 37.8047C53.4226 40.8565 54.9723 44.8112 55.0081 48.9216ZM55.0155 25.1777C55.022 29.2795 53.5078 33.2404 50.7621 36.3046L50.402 36.7318C50.2919 36.8609 50.1619 36.9901 50.0419 37.1093C48.4723 38.6859 46.603 39.937 44.5427 40.7897C42.4824 41.6425 40.2722 42.0799 38.0405 42.0766C37.1072 42.0766 36.1831 42.2594 35.321 42.6145C34.4588 42.9696 33.6755 43.4901 33.0159 44.1461C32.3562 44.8022 31.8332 45.5809 31.4768 46.4378C31.1203 47.2948 30.9373 48.2131 30.9383 49.1402L30.9315 71.0065H21.0016L21.0085 48.9216C21.0043 44.8191 22.5141 40.8569 25.2519 37.7848L25.612 37.3974C27.2 35.7078 29.1199 34.36 31.2531 33.4372C33.3863 32.5144 35.6872 32.0364 38.0136 32.0326C39.8967 32.0274 41.7013 31.2812 43.0323 29.9574C44.3634 28.6335 45.1125 26.8399 45.1157 24.9691L45.1226 2.99347L55.0225 2.99347L55.0155 25.1777Z"/>
</mask>
<path d="M56.0228 2L44.1329 2L44.1319 5.20891L31.912 5.20891L31.913 2L20.0231 2L20.0159 25.128C19.9939 29.5262 21.6177 33.7751 24.5722 37.0497C21.6231 40.309 19.9968 44.5397 20.0085 48.9216L20.0013 72H31.8912L31.8921 69.109H44.112L44.1111 72H56.0009L56.0081 48.9216C56.0302 44.5235 54.4064 40.2746 51.4519 37C54.401 33.7406 56.0273 29.5099 56.0155 25.128L56.0228 2ZM31.9117 6.20238L44.1316 6.20238L44.1304 9.84842L31.9106 9.84842L31.9117 6.20238ZM31.9103 10.8419L44.1301 10.8419L44.129 14.478L31.9091 14.478L31.9103 10.8419ZM31.9088 15.4715L44.1287 15.4715L44.1275 19.1175L31.9077 19.1175L31.9088 15.4715ZM31.9074 20.111L44.1272 20.111L44.1261 23.757L31.9062 23.757L31.9074 20.111ZM31.9059 24.7505L44.1258 24.7505L44.1257 24.9591C44.1255 25.7563 43.9672 26.5456 43.6599 27.2821C43.3526 28.0185 42.9024 28.6877 42.3348 29.2513C41.7673 29.815 41.0936 30.2621 40.3522 30.5672C39.6108 30.8722 38.8163 31.0292 38.0139 31.0292C37.2115 31.0292 36.4171 30.8722 35.6759 30.5672C34.9347 30.2621 34.2613 29.815 33.6941 29.2513C33.1269 28.6877 32.677 28.0185 32.3702 27.2821C32.0634 26.5456 31.9056 25.7563 31.9059 24.9591L31.9059 24.7505ZM21.0159 25.128L21.0228 2.99347L30.8827 2.99347L30.8759 24.9591C30.8782 26.8215 31.6217 28.6071 32.9443 29.9265C33.501 30.4745 34.1423 30.9306 34.8439 31.2776L34.3838 31.367C33.4679 31.5541 32.5683 31.8132 31.6936 32.1419L30.9135 32.4499C30.5835 32.579 30.2735 32.7281 29.9134 32.887C29.5534 33.046 29.4133 33.1453 29.1733 33.2844C28.9333 33.4235 28.6832 33.5526 28.4432 33.7017C28.2031 33.8507 27.8831 34.0693 27.603 34.2679C27.3229 34.4666 27.2129 34.5362 27.0229 34.6852C26.5678 35.0307 26.1305 35.3988 25.7126 35.788C25.5725 35.9171 25.4325 36.0463 25.3024 36.1853L25.2224 36.2549C22.5004 33.1806 21.0043 29.2231 21.0159 25.128ZM44.1123 68.1155H31.8924L31.8935 64.4794H44.1134L44.1123 68.1155ZM44.1137 63.4859H31.8938L31.895 59.8498H44.1149L44.1137 63.4859ZM44.1152 58.8464H31.8953L31.8964 55.2004H44.1163L44.1152 58.8464ZM44.1166 54.2069H31.8967L31.8979 50.5708H44.1177L44.1166 54.2069ZM44.1181 49.5773H31.8982L31.8984 49.0409C31.8986 48.2437 32.0569 47.4544 32.3642 46.7179C32.6715 45.9815 33.1217 45.3123 33.6892 44.7486C34.2568 44.185 34.9305 43.7379 35.6719 43.4328C36.4133 43.1278 37.2078 42.9708 38.0102 42.9708C38.8125 42.9708 39.607 43.1278 40.3482 43.4328C41.0894 43.7379 41.7628 44.185 42.33 44.7486C42.8972 45.3123 43.347 45.9815 43.6539 46.7179C43.9607 47.4544 44.1185 48.2437 44.1182 49.0409L44.1181 49.5773ZM55.0081 48.9216L55.0013 71.0065H45.1114L45.1182 49.0409C45.1149 47.7185 44.7385 46.4237 44.0318 45.3034C43.3252 44.183 42.3165 43.282 41.1202 42.7025L41.5202 42.623C41.8002 42.623 42.0903 42.5038 42.3703 42.4343C42.8405 42.3228 43.3045 42.1868 43.7604 42.027L44.3005 41.8382L44.5305 41.7587L45.0305 41.5501C45.4506 41.3713 45.8607 41.1825 46.2607 40.9739L46.8608 40.646C47.0608 40.5368 47.2509 40.4175 47.4409 40.2983L48.011 39.9804C48.201 39.8612 48.3811 39.732 48.5711 39.593C48.7612 39.4539 48.9412 39.3247 49.1212 39.1757C49.3013 39.0267 49.4713 38.8975 49.6514 38.7386C50.0015 38.4405 50.3416 38.1326 50.6517 37.8047C53.4226 40.8565 54.9723 44.8112 55.0081 48.9216ZM55.0155 25.1777C55.022 29.2795 53.5078 33.2404 50.7621 36.3046L50.402 36.7318C50.2919 36.8609 50.1619 36.9901 50.0419 37.1093C48.4723 38.6859 46.603 39.937 44.5427 40.7897C42.4824 41.6425 40.2722 42.0799 38.0405 42.0766C37.1072 42.0766 36.1831 42.2594 35.321 42.6145C34.4588 42.9696 33.6755 43.4901 33.0159 44.1461C32.3562 44.8022 31.8332 45.5809 31.4768 46.4378C31.1203 47.2948 30.9373 48.2131 30.9383 49.1402L30.9315 71.0065H21.0016L21.0085 48.9216C21.0043 44.8191 22.5141 40.8569 25.2519 37.7848L25.612 37.3974C27.2 35.7078 29.1199 34.36 31.2531 33.4372C33.3863 32.5144 35.6872 32.0364 38.0136 32.0326C39.8967 32.0274 41.7013 31.2812 43.0323 29.9574C44.3634 28.6335 45.1125 26.8399 45.1157 24.9691L45.1226 2.99347L55.0225 2.99347L55.0155 25.1777Z" fill="white"/>
<path d="M56.0228 2L44.1329 2L44.1319 5.20891L31.912 5.20891L31.913 2L20.0231 2L20.0159 25.128C19.9939 29.5262 21.6177 33.7751 24.5722 37.0497C21.6231 40.309 19.9968 44.5397 20.0085 48.9216L20.0013 72H31.8912L31.8921 69.109H44.112L44.1111 72H56.0009L56.0081 48.9216C56.0302 44.5235 54.4064 40.2746 51.4519 37C54.401 33.7406 56.0273 29.5099 56.0155 25.128L56.0228 2ZM31.9117 6.20238L44.1316 6.20238L44.1304 9.84842L31.9106 9.84842L31.9117 6.20238ZM31.9103 10.8419L44.1301 10.8419L44.129 14.478L31.9091 14.478L31.9103 10.8419ZM31.9088 15.4715L44.1287 15.4715L44.1275 19.1175L31.9077 19.1175L31.9088 15.4715ZM31.9074 20.111L44.1272 20.111L44.1261 23.757L31.9062 23.757L31.9074 20.111ZM31.9059 24.7505L44.1258 24.7505L44.1257 24.9591C44.1255 25.7563 43.9672 26.5456 43.6599 27.2821C43.3526 28.0185 42.9024 28.6877 42.3348 29.2513C41.7673 29.815 41.0936 30.2621 40.3522 30.5672C39.6108 30.8722 38.8163 31.0292 38.0139 31.0292C37.2115 31.0292 36.4171 30.8722 35.6759 30.5672C34.9347 30.2621 34.2613 29.815 33.6941 29.2513C33.1269 28.6877 32.677 28.0185 32.3702 27.2821C32.0634 26.5456 31.9056 25.7563 31.9059 24.9591L31.9059 24.7505ZM21.0159 25.128L21.0228 2.99347L30.8827 2.99347L30.8759 24.9591C30.8782 26.8215 31.6217 28.6071 32.9443 29.9265C33.501 30.4745 34.1423 30.9306 34.8439 31.2776L34.3838 31.367C33.4679 31.5541 32.5683 31.8132 31.6936 32.1419L30.9135 32.4499C30.5835 32.579 30.2735 32.7281 29.9134 32.887C29.5534 33.046 29.4133 33.1453 29.1733 33.2844C28.9333 33.4235 28.6832 33.5526 28.4432 33.7017C28.2031 33.8507 27.8831 34.0693 27.603 34.2679C27.3229 34.4666 27.2129 34.5362 27.0229 34.6852C26.5678 35.0307 26.1305 35.3988 25.7126 35.788C25.5725 35.9171 25.4325 36.0463 25.3024 36.1853L25.2224 36.2549C22.5004 33.1806 21.0043 29.2231 21.0159 25.128ZM44.1123 68.1155H31.8924L31.8935 64.4794H44.1134L44.1123 68.1155ZM44.1137 63.4859H31.8938L31.895 59.8498H44.1149L44.1137 63.4859ZM44.1152 58.8464H31.8953L31.8964 55.2004H44.1163L44.1152 58.8464ZM44.1166 54.2069H31.8967L31.8979 50.5708H44.1177L44.1166 54.2069ZM44.1181 49.5773H31.8982L31.8984 49.0409C31.8986 48.2437 32.0569 47.4544 32.3642 46.7179C32.6715 45.9815 33.1217 45.3123 33.6892 44.7486C34.2568 44.185 34.9305 43.7379 35.6719 43.4328C36.4133 43.1278 37.2078 42.9708 38.0102 42.9708C38.8125 42.9708 39.607 43.1278 40.3482 43.4328C41.0894 43.7379 41.7628 44.185 42.33 44.7486C42.8972 45.3123 43.347 45.9815 43.6539 46.7179C43.9607 47.4544 44.1185 48.2437 44.1182 49.0409L44.1181 49.5773ZM55.0081 48.9216L55.0013 71.0065H45.1114L45.1182 49.0409C45.1149 47.7185 44.7385 46.4237 44.0318 45.3034C43.3252 44.183 42.3165 43.282 41.1202 42.7025L41.5202 42.623C41.8002 42.623 42.0903 42.5038 42.3703 42.4343C42.8405 42.3228 43.3045 42.1868 43.7604 42.027L44.3005 41.8382L44.5305 41.7587L45.0305 41.5501C45.4506 41.3713 45.8607 41.1825 46.2607 40.9739L46.8608 40.646C47.0608 40.5368 47.2509 40.4175 47.4409 40.2983L48.011 39.9804C48.201 39.8612 48.3811 39.732 48.5711 39.593C48.7612 39.4539 48.9412 39.3247 49.1212 39.1757C49.3013 39.0267 49.4713 38.8975 49.6514 38.7386C50.0015 38.4405 50.3416 38.1326 50.6517 37.8047C53.4226 40.8565 54.9723 44.8112 55.0081 48.9216ZM55.0155 25.1777C55.022 29.2795 53.5078 33.2404 50.7621 36.3046L50.402 36.7318C50.2919 36.8609 50.1619 36.9901 50.0419 37.1093C48.4723 38.6859 46.603 39.937 44.5427 40.7897C42.4824 41.6425 40.2722 42.0799 38.0405 42.0766C37.1072 42.0766 36.1831 42.2594 35.321 42.6145C34.4588 42.9696 33.6755 43.4901 33.0159 44.1461C32.3562 44.8022 31.8332 45.5809 31.4768 46.4378C31.1203 47.2948 30.9373 48.2131 30.9383 49.1402L30.9315 71.0065H21.0016L21.0085 48.9216C21.0043 44.8191 22.5141 40.8569 25.2519 37.7848L25.612 37.3974C27.2 35.7078 29.1199 34.36 31.2531 33.4372C33.3863 32.5144 35.6872 32.0364 38.0136 32.0326C39.8967 32.0274 41.7013 31.2812 43.0323 29.9574C44.3634 28.6335 45.1125 26.8399 45.1157 24.9691L45.1226 2.99347L55.0225 2.99347L55.0155 25.1777Z" stroke="white" mask="url(#path-1-outside-1_5044_458)"/>
</svg>
