<svg width="76" height="75" viewBox="0 0 76 75" fill="none" xmlns="http://www.w3.org/2000/svg">
<path d="M59.8857 40.65C56.3337 40.6585 52.824 41.4298 49.5904 42.9126C46.3569 44.3954 43.4737 46.5557 41.133 49.2495L41.1368 37.059C43.8135 36.3624 46.1859 34.7912 47.8829 32.5912C49.5799 30.3911 50.5057 27.6864 50.5156 24.9L50.5185 15.45H47.3935L47.3965 6H41.1465L41.1435 15.45L34.8935 15.45L34.8965 6L28.6465 6L28.6435 15.45H25.5185L25.5156 24.9C25.5237 27.6864 26.4479 30.3911 28.1435 32.5912C29.8391 34.7912 32.2105 36.3624 34.8868 37.059L34.883 49.2495C32.544 46.5557 29.6621 44.3954 26.4295 42.9126C23.1969 41.4298 19.6877 40.6585 16.1357 40.65H13.0107L13.0097 43.8C13.0133 49.934 15.2363 55.8553 19.262 60.454C23.2877 65.0526 28.8396 68.0128 34.8769 68.7795L34.8768 69H41.1268L41.1269 68.7795C47.1647 68.0128 52.7185 65.0526 56.747 60.454C60.7756 55.8553 63.0023 49.934 63.0097 43.8L63.0107 40.65H59.8857Z" stroke="white" stroke-width="2"/>
</svg>
