<svg width="76" height="75" viewBox="0 0 76 75" fill="none" xmlns="http://www.w3.org/2000/svg">
<path d="M37.0234 2C17.6801 2 2.01856 17.6537 2.01253 37C2.0065 56.3436 17.6554 72 37.0016 72C56.3454 72 72.0065 56.3461 72.0125 37C72.0186 17.6564 56.3695 2 37.0234 2ZM37.0025 69.0833C19.3116 69.0833 4.92368 54.6909 4.92919 37C4.93471 19.3091 19.3316 4.91667 37.0225 4.91667C54.7134 4.91667 69.1014 19.3091 69.0959 37C69.0903 54.6909 54.6934 69.0833 37.0025 69.0833Z" fill="white"/>
<path d="M37.5205 10.998C22.9084 10.998 11.0168 22.8859 11.0122 37.498C11.0077 52.1101 22.8919 63.998 37.504 63.998C52.1161 63.998 64.0077 52.1101 64.0122 37.498C64.0168 22.8859 52.1326 10.998 37.5205 10.998ZM37.5049 61.0536C24.5164 61.0536 13.9526 50.4867 13.9567 37.498C13.9607 24.5095 24.5311 13.9425 37.5196 13.9425C50.5083 13.9425 61.0718 24.5095 61.0678 37.498C61.0638 50.4867 50.4936 61.0536 37.5049 61.0536Z" fill="white"/>
<path d="M37.5148 28C39.9961 28 42.0154 25.9813 42.0162 23.5C42.0169 21.0187 39.9989 19 37.5176 19C35.0363 19 33.0169 21.0187 33.0162 23.5C33.0154 25.9813 35.0335 28 37.5148 28ZM37.5166 22C38.3437 22 39.0164 22.6729 39.0162 23.5C39.0159 24.3271 38.3428 25 37.5157 25C36.6886 25 36.0159 24.3271 36.0162 23.5C36.0164 22.6729 36.6895 22 37.5166 22Z" fill="white"/>
<path d="M24.0132 33.5C24.0135 32.6729 24.6866 32 25.5137 32C26.3422 32 27.0139 31.3284 27.0142 30.5C27.0144 29.6715 26.3431 29 25.5146 29C23.0333 29 21.014 31.0187 21.0132 33.5C21.013 34.3284 21.6843 35 22.5128 35C23.3412 35 24.013 34.3284 24.0132 33.5Z" fill="white"/>
<path d="M44.588 33.5467C45.1543 32.9423 45.1546 31.9623 44.5887 31.3578C42.8935 29.5474 40.1343 29.5474 38.4378 31.3578C37.8715 31.9621 37.8712 32.9421 38.4372 33.5467C39.0032 34.1511 39.9209 34.1511 40.4875 33.5467C41.0541 32.9418 41.9713 32.9417 42.5378 33.5467C42.8208 33.8489 43.1918 34 43.5628 34C43.9337 34 44.3048 33.8489 44.588 33.5467Z" fill="white"/>
<path d="M43.4629 46.4246C42.8584 46.9907 42.8581 47.9087 43.4623 48.4749C44.0659 49.0405 44.0679 49.9574 43.4617 50.5251C42.8571 51.0912 42.8568 52.0092 43.461 52.5755C44.0656 53.1416 45.0451 53.1414 45.65 52.5755C47.4608 50.8797 47.4617 48.1206 45.6519 46.4247C45.0474 45.8585 44.0677 45.8585 43.4629 46.4246Z" fill="white"/>
<path d="M27.5088 45.998C26.6817 45.998 26.009 45.3251 26.0093 44.498C26.0096 43.6697 25.3382 42.998 24.5098 42.998C23.6813 42.998 23.0096 43.6697 23.0093 44.498C23.0085 46.9793 25.0266 48.998 27.5079 48.998C28.3363 48.998 29.0081 48.3263 29.0084 47.498C29.0086 46.6697 28.3373 45.998 27.5088 45.998Z" fill="white"/>
<path d="M51.5137 31.998C49.0324 31.998 47.013 34.0167 47.0123 36.498C47.0115 38.9793 49.0296 40.998 51.5109 40.998C53.9922 40.998 56.0115 38.9793 56.0123 36.498C56.013 34.0167 53.995 31.998 51.5137 31.998ZM51.5118 37.9979C50.6847 37.9979 50.012 37.3251 50.0123 36.4979C50.0125 35.6706 50.6856 34.9979 51.5127 34.9979C52.3398 34.9979 53.0125 35.6708 53.0123 36.4979C53.012 37.325 52.3389 37.9979 51.5118 37.9979Z" fill="white"/>
<path d="M35.5127 38C33.0314 38 31.0121 40.0187 31.0113 42.5C31.0105 44.9813 33.0286 47 35.5099 47C37.9912 47 40.0105 44.9813 40.0113 42.5C40.0121 40.0187 37.994 38 35.5127 38ZM35.5108 44C34.6837 44 34.011 43.3271 34.0113 42.5C34.0116 41.6729 34.6847 41 35.5118 41C36.3389 41 37.0116 41.6729 37.0113 42.5C37.011 43.3271 36.3379 44 35.5108 44Z" fill="white"/>
</svg>
