<svg width="40" height="40" viewBox="0 0 40 40" fill="none" xmlns="http://www.w3.org/2000/svg">
<path d="M16.3545 30.041C18.0506 30.0412 19.4375 31.4289 19.4375 33.125C19.4373 34.821 18.0505 36.2078 16.3545 36.208C14.6584 36.208 13.2707 34.8211 13.2705 33.125C13.2705 31.4288 14.6583 30.041 16.3545 30.041ZM16.3545 31.833C15.6445 31.833 15.0625 32.415 15.0625 33.125C15.0627 33.8349 15.6446 34.416 16.3545 34.416C17.0643 34.4158 17.6453 33.8348 17.6455 33.125C17.6455 32.4151 17.0644 31.8332 16.3545 31.833Z" fill="white" stroke="white" stroke-width="0.333333"/>
<path d="M29.4795 30.041C31.1756 30.0412 32.5625 31.4289 32.5625 33.125C32.5623 34.821 31.1755 36.2078 29.4795 36.208C27.7834 36.208 26.3957 34.8211 26.3955 33.125C26.3955 31.4288 27.7833 30.041 29.4795 30.041ZM29.4795 31.833C28.7695 31.833 28.1875 32.415 28.1875 33.125C28.1877 33.8349 28.7696 34.416 29.4795 34.416C30.1893 34.4158 30.7703 33.8348 30.7705 33.125C30.7705 32.4151 30.1894 31.8332 29.4795 31.833Z" fill="white" stroke="white" stroke-width="0.333333"/>
<path d="M8.62537 3.79102C10.1664 3.79118 11.475 4.94569 11.7064 6.41113V6.41211L11.9769 8.16602H32.0316C32.9441 8.1661 33.8669 8.54488 34.4154 9.24316H34.4164C35.0314 9.93513 35.2647 10.7861 35.1117 11.6377L35.1127 11.6387L33.5814 21.8477L33.5804 21.8535C33.2749 23.4579 31.971 24.5409 30.5004 24.541H14.5092L14.7679 26.0918L14.7972 26.2129C14.9651 26.8038 15.4597 27.1973 16.0629 27.1973H31.8334V28.9893H16.0629C14.5964 28.9893 13.2902 27.9105 12.9828 26.4502L12.9808 26.4424V26.4414L9.91833 6.68164L9.91736 6.67285C9.85426 6.04185 9.28235 5.58316 8.62537 5.58301H3.79138V3.79102H8.62537ZM14.2357 22.8223H30.5004C31.1394 22.8221 31.6611 22.3789 31.7943 21.6465L33.3246 11.4434L33.3256 11.4414C33.3953 11.0231 33.3131 10.6691 33.098 10.5078L33.0883 10.501L33.0804 10.4922C32.8141 10.2258 32.417 10.0314 32.0316 10.0312H12.2474L14.2357 22.8223Z" fill="white" stroke="white" stroke-width="0.333333"/>
</svg>
