<svg width="21" height="19" viewBox="0 0 21 19" fill="none" xmlns="http://www.w3.org/2000/svg">
<path d="M20.5225 -0.0996094C20.845 -0.0995657 21.0996 0.17058 21.0996 0.496094C21.0995 0.673284 21.0236 0.831951 20.9033 0.941406L20.9043 0.942383L12.9316 9.1748V16.2256C12.9316 16.4573 12.8023 16.6584 12.6123 16.7568L12.6133 16.7578L8.83887 19.0195C8.59586 19.1651 8.29493 19.1063 8.11719 18.8994L8.04883 18.8018C8.014 18.7392 7.99257 18.6727 7.98145 18.6055H7.9707V9.17188L0.0664062 0.913086C-0.156109 0.680582 -0.155665 0.306196 0.0683594 0.0751953C0.155225 -0.0144266 0.263873 -0.0684905 0.376953 -0.0888672V-0.0996094H20.5225ZM8.93359 8.48633H8.93262C9.05171 8.59572 9.12597 8.75461 9.12598 8.93066V17.4707L11.7764 15.8828V8.83105H11.7871C11.8064 8.71412 11.8584 8.6015 11.9463 8.51074L19.1309 1.0918H1.85645L8.93359 8.48633Z" fill="white" stroke="white" stroke-width="0.2"/>
</svg>
