<svg width="24" height="24" viewBox="0 0 24 24" fill="none" xmlns="http://www.w3.org/2000/svg">
<path fill-rule="evenodd" clip-rule="evenodd" d="M20.4005 3.48774C18.1551 1.23981 15.1691 0.00130343 11.9877 0C5.43268 0 0.0975344 5.33471 0.0949758 11.8918C0.0940586 13.9879 0.641693 16.0338 1.68246 17.8373L-0.00476074 24L6.29975 22.3462C8.03679 23.2937 9.99256 23.7931 11.983 23.7938H11.9878C11.9874 23.7938 11.9882 23.7938 11.9878 23.7938C18.5422 23.7938 23.8778 18.4585 23.8805 11.9013C23.8817 8.72353 22.6458 5.73558 20.4005 3.48774ZM11.9878 21.7853H11.9838C10.2101 21.7846 8.47044 21.308 6.95277 20.4075L6.59186 20.1933L2.85067 21.1746L3.84929 17.527L3.61424 17.153C2.62479 15.5792 2.10221 13.7602 2.10299 11.8925C2.10511 6.44248 6.53948 2.00859 11.9918 2.00859C14.632 2.00941 17.1138 3.03898 18.9801 4.90737C20.8463 6.77577 21.8735 9.25929 21.8725 11.9005C21.8703 17.3509 17.436 21.7853 11.9878 21.7853Z" fill="white"/>
<path fill-rule="evenodd" clip-rule="evenodd" d="M17.409 14.3827C17.1119 14.234 15.6509 13.5152 15.3785 13.4159C15.1062 13.3168 14.908 13.2672 14.71 13.5647C14.5119 13.8621 13.9424 14.5315 13.769 14.7299C13.5957 14.9281 13.4223 14.953 13.1252 14.8041C12.8281 14.6554 11.8706 14.3417 10.7356 13.3293C9.85217 12.5413 9.25582 11.5683 9.08242 11.2707C8.90911 10.9733 9.06398 10.8125 9.21276 10.6643C9.34644 10.5311 9.50994 10.3172 9.65854 10.1437C9.80708 9.9702 9.85661 9.84613 9.95567 9.64796C10.0547 9.4496 10.0052 9.27605 9.9309 9.12736C9.85661 8.97863 9.26234 7.51598 9.01474 6.92089C8.77346 6.34154 8.52851 6.42004 8.34608 6.41082C8.17301 6.40218 7.97465 6.40039 7.77657 6.40039C7.5785 6.40039 7.2565 6.47478 6.98418 6.77221C6.71181 7.06973 5.94409 7.78869 5.94409 9.25119C5.94409 10.7139 7.0089 12.1269 7.15749 12.3252C7.30603 12.5236 9.25288 15.5249 12.2338 16.8121C12.9428 17.1183 13.4963 17.3011 13.9278 17.438C14.6397 17.6643 15.2875 17.6323 15.7995 17.5558C16.3704 17.4705 17.5576 16.837 17.8052 16.1429C18.0529 15.4487 18.0529 14.8537 17.9785 14.7298C17.9043 14.6059 17.7062 14.5315 17.409 14.3827Z" fill="white"/>
</svg>
