<svg width="24" height="24" viewBox="0 0 24 24" fill="none" xmlns="http://www.w3.org/2000/svg">
<g clip-path="url(#clip0_5051_9088)">
<path fill-rule="evenodd" clip-rule="evenodd" d="M5.98862 7.92006H5.03404C4.65928 7.92006 4.35547 7.61625 4.35547 7.24149C4.35547 6.86673 4.65928 6.56292 5.03404 6.56292H5.98862C6.27483 5.67696 7.10638 5.03613 8.08761 5.03613C9.06884 5.03613 9.90042 5.67696 10.1866 6.56292H19.9626C20.3374 6.56292 20.6412 6.86673 20.6412 7.24149C20.6412 7.61625 20.3374 7.92006 19.9626 7.92006H10.1866C9.90042 8.80602 9.06884 9.44685 8.08761 9.44685C7.10638 9.44685 6.27483 8.80602 5.98862 7.92006ZM6.90011 7.24149C6.90011 6.58565 7.43177 6.05399 8.08761 6.05399C8.74345 6.05399 9.27511 6.58565 9.27511 7.24149C9.27511 7.89733 8.74345 8.42899 8.08761 8.42899C7.43177 8.42899 6.90011 7.89733 6.90011 7.24149Z" fill="white"/>
<path fill-rule="evenodd" clip-rule="evenodd" d="M5.03404 13.3478H14.8365C15.1228 14.2337 15.9543 14.8746 16.9356 14.8746C17.9168 14.8746 18.7483 14.2337 19.0345 13.3478H19.9626C20.3374 13.3478 20.6412 13.044 20.6412 12.6692C20.6412 12.2944 20.3374 11.9907 19.9626 11.9907H19.0345C18.7483 11.1047 17.9168 10.4639 16.9356 10.4639C15.9543 10.4639 15.1228 11.1047 14.8365 11.9907H5.03404C4.65928 11.9907 4.35547 12.2944 4.35547 12.6692C4.35547 13.044 4.65928 13.3478 5.03404 13.3478ZM16.9356 11.4817C16.2797 11.4817 15.7481 12.0134 15.7481 12.6692C15.7481 13.3251 16.2797 13.8567 16.9356 13.8567C17.5914 13.8567 18.1231 13.3251 18.1231 12.6692C18.1231 12.0134 17.5914 11.4817 16.9356 11.4817Z" fill="white"/>
<path fill-rule="evenodd" clip-rule="evenodd" d="M10.06 18.7765H5.03404C4.65928 18.7765 4.35547 18.4727 4.35547 18.0979C4.35547 17.7232 4.65928 17.4194 5.03404 17.4194H10.06C10.3462 16.5334 11.1778 15.8926 12.159 15.8926C13.1403 15.8926 13.9718 16.5334 14.2581 17.4194H19.9626C20.3374 17.4194 20.6412 17.7232 20.6412 18.0979C20.6412 18.4727 20.3374 18.7765 19.9626 18.7765H14.2581C13.9718 19.6624 13.1403 20.3033 12.159 20.3033C11.1778 20.3033 10.3462 19.6624 10.06 18.7765ZM10.9715 18.0979C10.9715 17.4421 11.5032 16.9104 12.159 16.9104C12.8149 16.9104 13.3465 17.4421 13.3465 18.0979C13.3465 18.7538 12.8149 19.2854 12.159 19.2854C11.5032 19.2854 10.9715 18.7538 10.9715 18.0979Z" fill="white"/>
</g>
<defs>
<clipPath id="clip0_5051_9088">
<rect width="24" height="24" fill="white"/>
</clipPath>
</defs>
</svg>
