<svg width="17" height="17" viewBox="0 0 17 17" fill="none" xmlns="http://www.w3.org/2000/svg">
<g clip-path="url(#clip0_5051_2429)">
<path d="M8.49844 11.9992L13.3484 7.14922L12.6484 6.44922L8.49844 10.5992L4.34844 6.44922L3.64844 7.14922L8.49844 11.9992Z" fill="white"/>
<path d="M8.5 0C13.2 0 17 3.8 17 8.5C17 13.2 13.2 17 8.5 17C3.8 17 0 13.2 0 8.5C0 3.8 3.8 0 8.5 0ZM8.5 16C12.65 16 16 12.65 16 8.5C16 4.35 12.65 1 8.5 1C4.35 1 1 4.35 1 8.5C1 12.65 4.35 16 8.5 16Z" fill="white"/>
</g>
<defs>
<clipPath id="clip0_5051_2429">
<rect width="17" height="17" fill="white"/>
</clipPath>
</defs>
</svg>
