<svg width="16" height="16" viewBox="0 0 16 16" fill="none" xmlns="http://www.w3.org/2000/svg">
<path d="M8.52955 10.8565L12.6829 6.81661C12.7791 6.72317 12.832 6.59844 12.832 6.46544C12.832 6.33244 12.7791 6.20771 12.6829 6.11427L12.3771 5.81676C12.1779 5.62317 11.854 5.62317 11.6551 5.81676L8.1673 9.20916L4.67568 5.813C4.57954 5.71956 4.45137 5.66797 4.31471 5.66797C4.1779 5.66797 4.04974 5.71956 3.95352 5.813L3.6478 6.11051C3.55166 6.20402 3.4987 6.32868 3.4987 6.46167C3.4987 6.59467 3.55166 6.7194 3.6478 6.81284L7.80497 10.8565C7.90142 10.9502 8.03018 11.0016 8.16707 11.0013C8.30449 11.0016 8.43318 10.9502 8.52955 10.8565Z" fill="black"/>
</svg>
