<svg width="25" height="25" viewBox="0 0 25 25" fill="none" xmlns="http://www.w3.org/2000/svg">
<g clip-path="url(#clip0_299_1051)">
<path d="M16.1098 13.6902C15.7906 13.3451 15.4322 13.0385 15.0418 12.7766C16.6171 11.5586 17.7211 9.83187 18.1654 7.89082C18.1982 7.75055 18.203 7.60518 18.1794 7.46306C18.1558 7.32095 18.1043 7.18491 18.0279 7.06277C17.9516 6.94062 17.8518 6.83478 17.7344 6.75134C17.6169 6.6679 17.4842 6.6085 17.3437 6.57657C17.2032 6.54463 17.0578 6.54079 16.9159 6.56526C16.7739 6.58973 16.6382 6.64203 16.5165 6.71915C16.3948 6.79628 16.2896 6.8967 16.2069 7.01464C16.1242 7.13258 16.0656 7.26572 16.0345 7.40638C15.8276 8.31434 15.4251 9.16623 14.855 9.90265C14.285 10.6391 13.5612 11.2423 12.7342 11.6702V7.65079C12.7274 7.57038 12.7114 7.49103 12.6864 7.4143C12.6792 7.35113 12.6666 7.28868 12.6487 7.22764C12.6021 7.12827 12.5406 7.03657 12.4665 6.95567C12.4469 6.93246 12.4371 6.90186 12.4157 6.88039C12.3357 6.80649 12.245 6.74497 12.1468 6.69785C12.1189 6.68298 12.0982 6.65783 12.0689 6.6454C11.9852 6.61751 11.8985 6.59967 11.8106 6.59224C11.7563 6.57636 11.7008 6.56496 11.6447 6.55816L10.9298 6.55594H10.9266C10.671 6.55472 10.4231 6.64359 10.2265 6.80693C10.0299 6.97028 9.89706 7.19766 9.8514 7.44917C9.80575 7.70068 9.85015 7.96023 9.97681 8.18226C10.1035 8.40429 10.3043 8.5746 10.544 8.6633V14.0071C8.81253 12.2097 7.666 9.93006 7.2554 7.46831C7.23144 7.32686 7.17984 7.1915 7.10357 7.06998C7.0273 6.94846 6.92784 6.84315 6.81087 6.76007C6.6939 6.67699 6.56171 6.61776 6.42185 6.58577C6.28199 6.55377 6.1372 6.54964 5.99574 6.5736C5.85428 6.59756 5.71893 6.64915 5.59741 6.72543C5.47589 6.8017 5.37058 6.90116 5.2875 7.01813C5.20442 7.1351 5.14519 7.26729 5.11319 7.40715C5.0812 7.54701 5.07706 7.6918 5.10103 7.83326C5.73957 11.6385 7.8615 15.0351 11.0013 17.2777C11.0461 17.3045 11.0927 17.3281 11.1409 17.3481C11.1788 17.3703 11.218 17.3901 11.2584 17.4073C11.3803 17.4561 11.5102 17.4823 11.6415 17.4847C11.8022 17.4827 11.9605 17.4447 12.1046 17.3734C12.1155 17.3683 12.1279 17.3707 12.1387 17.3652C12.2353 17.3149 12.3238 17.2503 12.4011 17.1737C12.4166 17.1585 12.427 17.1399 12.4417 17.1239C12.5122 17.0465 12.5711 16.9592 12.6164 16.8648C12.6317 16.8334 12.6455 16.8035 12.6577 16.7705C12.7057 16.65 12.7316 16.5218 12.7342 16.392L12.7347 14.0691C13.4117 14.2678 14.0217 14.6475 14.4991 15.167L16.2997 17.1304C16.3966 17.2365 16.5134 17.3225 16.6435 17.3833C16.7737 17.4442 16.9145 17.4788 17.0581 17.4852C17.2016 17.4916 17.345 17.4695 17.48 17.4204C17.615 17.3713 17.739 17.296 17.8448 17.1989C17.9507 17.1018 18.0364 16.9848 18.097 16.8545C18.1576 16.7242 18.1919 16.5833 18.1979 16.4398C18.2039 16.2962 18.1816 16.1529 18.1322 16.018C18.0828 15.8831 18.0072 15.7593 17.9099 15.6536L16.1098 13.6902ZM15.3767 0H8.67297C1.94523 0 0 1.94309 0 8.66123V15.3655C0 22.0932 1.94256 24.0385 8.66177 24.0385H15.3655C22.0932 24.0385 24.0385 22.0954 24.0385 15.3772V8.67297C24.0385 1.94523 22.0959 0 15.3767 0ZM21.8531 15.3772C21.8531 20.8843 20.8832 21.8531 15.3655 21.8531H8.66177C3.15366 21.8531 2.18531 20.8832 2.18531 15.3655V8.66123C2.18531 3.1542 3.15527 2.18531 8.67297 2.18531H15.3767C20.8848 2.18531 21.8531 3.15527 21.8531 8.67297V15.3772Z" fill="white"/>
</g>
<defs>
<clipPath id="clip0_299_1051">
<rect width="25" height="25" fill="white"/>
</clipPath>
</defs>
</svg>
